<svg id="Calque_1" data-name="Calque 1" xmlns="http://www.w3.org/2000/svg" viewBox="0 0 720.25 129.25"><defs><style>.cls-1{fill:#222;}.cls-2{fill:#555;}.cls-3{fill:#fcc30b;}.cls-4{fill:#c5192d;}.cls-5{fill:#4c9f38;}.cls-6{fill:#fd9d24;}.cls-7{fill:#a21942;}.cls-8{fill:#19486a;}</style></defs><title>Inventures-2</title><path class="cls-1" d="M242.67,8.75a7,7,0,0,1,2.17-5.1,7.46,7.46,0,0,1,5.5-2.17A8,8,0,0,1,256,3.55a6.74,6.74,0,0,1,2.27,5.2A6.74,6.74,0,0,1,256,14,8,8,0,0,1,250.35,16a7.45,7.45,0,0,1-5.5-2.17A7,7,0,0,1,242.67,8.75Zm1.72,16.46h12.12V73.7H244.39Z"/><path class="cls-1" d="M271.26,25.21h11.51V33h.2a15.66,15.66,0,0,1,5.61-6.41A16.11,16.11,0,0,1,298,23.8a18.24,18.24,0,0,1,8.13,1.67,16,16,0,0,1,5.55,4.39,17.8,17.8,0,0,1,3.18,6.26,26.41,26.41,0,0,1,1,7.27V73.7H303.78V46.83a34.36,34.36,0,0,0-.3-4.44,12,12,0,0,0-1.31-4.19,8.72,8.72,0,0,0-2.78-3.08,8.17,8.17,0,0,0-4.7-1.21,10.37,10.37,0,0,0-5,1.16,10.73,10.73,0,0,0-3.48,3,13.19,13.19,0,0,0-2.07,4.19,16.72,16.72,0,0,0-.71,4.8V73.7H271.26Z"/><path class="cls-1" d="M322.76,25.21H336l12.73,35.35h.2l12.83-35.35h12.83L355.29,73.7H342.36Z"/><path class="cls-1" d="M428.11,50.06v1.62a13.17,13.17,0,0,1-.1,1.62H391.14a12,12,0,0,0,1.36,4.8,12.18,12.18,0,0,0,3.08,3.74,15.33,15.33,0,0,0,4.34,2.47,14.28,14.28,0,0,0,5.05.91,16.17,16.17,0,0,0,7.68-1.67,14.39,14.39,0,0,0,5.15-4.6l8.08,6.46q-7.17,9.7-20.81,9.7a29.61,29.61,0,0,1-10.4-1.77,24.53,24.53,0,0,1-8.23-5A22.55,22.55,0,0,1,381,60.41a27.33,27.33,0,0,1-2-10.66,27.83,27.83,0,0,1,2-10.66,23.73,23.73,0,0,1,13.53-13.43,27.22,27.22,0,0,1,10.15-1.87A25.59,25.59,0,0,1,414,25.47a20.28,20.28,0,0,1,7.42,4.95,23,23,0,0,1,4.9,8.18A33.8,33.8,0,0,1,428.11,50.06ZM416,44.61a15,15,0,0,0-.66-4.44,9.92,9.92,0,0,0-5.66-6.31,12.56,12.56,0,0,0-5.1-1,13.62,13.62,0,0,0-9.24,3.28,12,12,0,0,0-4.19,8.43Z"/><path class="cls-1" d="M439.82,25.21h11.51V33h.2a15.66,15.66,0,0,1,5.61-6.41,16.11,16.11,0,0,1,9.44-2.78,18.24,18.24,0,0,1,8.13,1.67,16,16,0,0,1,5.55,4.39,17.8,17.8,0,0,1,3.18,6.26,26.41,26.41,0,0,1,1,7.27V73.7H472.34V46.83a34.36,34.36,0,0,0-.3-4.44,12,12,0,0,0-1.31-4.19,8.72,8.72,0,0,0-2.78-3.08,8.17,8.17,0,0,0-4.7-1.21,10.37,10.37,0,0,0-5,1.16,10.73,10.73,0,0,0-3.48,3,13.19,13.19,0,0,0-2.07,4.19,16.72,16.72,0,0,0-.71,4.8V73.7H439.82Z"/><path class="cls-1" d="M491.63,34.91v-9.7h8.48v-14H512v14h12.12v9.7H512V57.43a11,11,0,0,0,1.16,5.35q1.16,2.12,5.2,2.12a15.05,15.05,0,0,0,2.63-.25,10.54,10.54,0,0,0,2.52-.76l.4,9.49a20.06,20.06,0,0,1-3.84,1,27.09,27.09,0,0,1-4.24.35A19.35,19.35,0,0,1,508,73.34a11.93,11.93,0,0,1-4.8-3.74,13.81,13.81,0,0,1-2.42-5.45,31.64,31.64,0,0,1-.66-6.62V34.91Z"/><path class="cls-1" d="M577.18,73.7H565.66V65.92h-.2a15.68,15.68,0,0,1-5.61,6.41,16.12,16.12,0,0,1-9.44,2.78,18.23,18.23,0,0,1-8.13-1.67A16,16,0,0,1,536.73,69a17.7,17.7,0,0,1-3.18-6.26,26.31,26.31,0,0,1-1-7.27V25.21h12.12V52.08a34.36,34.36,0,0,0,.3,4.44,12,12,0,0,0,1.31,4.19A8.69,8.69,0,0,0,549,63.8a8.15,8.15,0,0,0,4.7,1.21,10.43,10.43,0,0,0,5-1.16,10.57,10.57,0,0,0,3.54-3,13.19,13.19,0,0,0,2.07-4.19,16.74,16.74,0,0,0,.71-4.8V25.21h12.12Z"/><path class="cls-1" d="M591.72,25.21h11.61v8.08h.2a17.69,17.69,0,0,1,5.66-6.87,14.11,14.11,0,0,1,8.48-2.63q.71,0,1.52,0a5.66,5.66,0,0,1,1.41.25V35.21a17.13,17.13,0,0,0-2.07-.4,14.5,14.5,0,0,0-1.67-.1,12.85,12.85,0,0,0-6.67,1.52,12.1,12.1,0,0,0-3.94,3.64,13,13,0,0,0-1.92,4.34,16.85,16.85,0,0,0-.51,3.54v26H591.72Z"/><path class="cls-1" d="M672.92,50.06v1.62a13.17,13.17,0,0,1-.1,1.62H636a12,12,0,0,0,1.36,4.8,12.18,12.18,0,0,0,3.08,3.74,15.33,15.33,0,0,0,4.34,2.47,14.28,14.28,0,0,0,5.05.91,16.17,16.17,0,0,0,7.68-1.67,14.39,14.39,0,0,0,5.15-4.6l8.08,6.46q-7.17,9.7-20.81,9.7a29.61,29.61,0,0,1-10.4-1.77,24.53,24.53,0,0,1-8.23-5,22.55,22.55,0,0,1-5.45-7.93,27.33,27.33,0,0,1-2-10.66,27.83,27.83,0,0,1,2-10.66,23.73,23.73,0,0,1,13.53-13.43,27.22,27.22,0,0,1,10.15-1.87,25.59,25.59,0,0,1,9.34,1.67,20.28,20.28,0,0,1,7.42,4.95,23,23,0,0,1,4.9,8.18A33.8,33.8,0,0,1,672.92,50.06ZM660.8,44.61a15,15,0,0,0-.66-4.44,9.92,9.92,0,0,0-5.66-6.31,12.56,12.56,0,0,0-5.1-1,13.62,13.62,0,0,0-9.24,3.28A12,12,0,0,0,636,44.61Z"/><path class="cls-1" d="M711.2,38.14a14,14,0,0,0-4.44-3.69,12.52,12.52,0,0,0-6.16-1.57,11.79,11.79,0,0,0-5.35,1.21,4.18,4.18,0,0,0-2.42,4,4.05,4.05,0,0,0,2.68,4,48.91,48.91,0,0,0,7.83,2.37,44.49,44.49,0,0,1,5.5,1.62,20.14,20.14,0,0,1,5,2.68,13.23,13.23,0,0,1,3.69,4.14,11.94,11.94,0,0,1,1.41,6,15.62,15.62,0,0,1-1.67,7.52,14.15,14.15,0,0,1-4.44,5,18.71,18.71,0,0,1-6.46,2.78,33.57,33.57,0,0,1-7.62.86,30.29,30.29,0,0,1-11-2.07,23.24,23.24,0,0,1-8.89-5.91l8-7.47A15.88,15.88,0,0,0,692.11,64a15,15,0,0,0,7.17,1.72,12.32,12.32,0,0,0,2.68-.3,9.09,9.09,0,0,0,2.52-1,5.23,5.23,0,0,0,1.87-1.77,5,5,0,0,0,.71-2.73,4.48,4.48,0,0,0-2.78-4.34A45,45,0,0,0,696,53a39.94,39.94,0,0,1-5.3-1.57,17.25,17.25,0,0,1-4.6-2.53A11.67,11.67,0,0,1,682.82,45a12.35,12.35,0,0,1-1.21-5.76,13.88,13.88,0,0,1,1.67-7,14.33,14.33,0,0,1,4.39-4.8,19.74,19.74,0,0,1,6.16-2.78,27.53,27.53,0,0,1,7.07-.91,29.78,29.78,0,0,1,10.25,1.82,17.32,17.32,0,0,1,7.93,5.55Z"/><path class="cls-2" d="M244.63,99.86a1.67,1.67,0,0,1,.42-1.15,1.56,1.56,0,0,1,1.23-.47,1.59,1.59,0,0,1,1.24.47,1.66,1.66,0,0,1,.42,1.15,1.66,1.66,0,1,1-3.31,0Zm3,20.72h-2.8V104.2h2.8Z"/><path class="cls-2" d="M257.87,104.2l.08,1.82a6,6,0,0,1,4.86-2.12q3.44,0,4.68,2.63a6.2,6.2,0,0,1,2.13-1.91,6.28,6.28,0,0,1,3.1-.73q5.39,0,5.48,5.71v11h-2.8V109.77a3.76,3.76,0,0,0-.8-2.63,3.53,3.53,0,0,0-2.69-.87,3.71,3.71,0,0,0-2.59.93,3.77,3.77,0,0,0-1.2,2.5v10.87h-2.82V109.85q0-3.57-3.5-3.57a3.75,3.75,0,0,0-3.77,2.35v12h-2.8V104.2Z"/><path class="cls-2" d="M299.34,112.57a9.81,9.81,0,0,1-1.71,6,5.48,5.48,0,0,1-4.63,2.29,6,6,0,0,1-4.69-1.89v7.89h-2.8V104.2h2.56l.14,1.82A5.77,5.77,0,0,1,293,103.9a5.58,5.58,0,0,1,4.67,2.23,9.92,9.92,0,0,1,1.72,6.19Zm-2.8-.32a7.23,7.23,0,0,0-1.18-4.37,3.8,3.8,0,0,0-3.24-1.61,4.12,4.12,0,0,0-3.81,2.26v7.83a4.12,4.12,0,0,0,3.84,2.24,3.79,3.79,0,0,0,3.2-1.6A7.9,7.9,0,0,0,296.54,112.25Z"/><path class="cls-2" d="M316.11,120.58a5.89,5.89,0,0,1-.39-1.73,6.25,6.25,0,0,1-4.66,2,5.78,5.78,0,0,1-4-1.37,4.43,4.43,0,0,1-1.55-3.47,4.63,4.63,0,0,1,1.94-4,9.17,9.17,0,0,1,5.47-1.42h2.72v-1.29a3.14,3.14,0,0,0-.88-2.34,3.53,3.53,0,0,0-2.59-.87,4.08,4.08,0,0,0-2.51.76,2.23,2.23,0,0,0-1,1.83h-2.82a3.86,3.86,0,0,1,.87-2.37,5.94,5.94,0,0,1,2.36-1.81,7.93,7.93,0,0,1,3.28-.67,6.47,6.47,0,0,1,4.43,1.42,5.11,5.11,0,0,1,1.67,3.9v7.54a9.21,9.21,0,0,0,.58,3.59v.24Zm-4.65-2.13a4.92,4.92,0,0,0,2.5-.68,4.11,4.11,0,0,0,1.71-1.77v-3.36h-2.19q-5.15,0-5.15,3a2.55,2.55,0,0,0,.88,2.06A3.38,3.38,0,0,0,311.46,118.44Z"/><path class="cls-2" d="M332.53,118.6a4,4,0,0,0,2.62-.91,3.2,3.2,0,0,0,1.24-2.27H339a5.08,5.08,0,0,1-1,2.68,6.39,6.39,0,0,1-2.38,2,6.88,6.88,0,0,1-3.16.76,6.75,6.75,0,0,1-5.32-2.23,8.89,8.89,0,0,1-2-6.11v-.47a9.86,9.86,0,0,1,.88-4.25,6.68,6.68,0,0,1,2.52-2.89,7.16,7.16,0,0,1,3.88-1,6.57,6.57,0,0,1,4.58,1.65,5.9,5.9,0,0,1,1.95,4.28h-2.65a3.86,3.86,0,0,0-1.2-2.61,3.75,3.75,0,0,0-2.67-1,3.92,3.92,0,0,0-3.31,1.54,7.22,7.22,0,0,0-1.17,4.44v.53a7.07,7.07,0,0,0,1.17,4.36A3.94,3.94,0,0,0,332.53,118.6Z"/><path class="cls-2" d="M349.08,100.23v4h3.06v2.17h-3.06v10.17a2.27,2.27,0,0,0,.41,1.48,1.72,1.72,0,0,0,1.39.49,6.78,6.78,0,0,0,1.33-.18v2.26a8.18,8.18,0,0,1-2.15.3,3.49,3.49,0,0,1-2.83-1.13,4.87,4.87,0,0,1-1-3.22V106.37h-3V104.2h3v-4Z"/><path class="cls-2" d="M374.69,116.78l4.06-12.58h2.86l-5.87,16.38H373.6l-5.93-16.38h2.86Z"/><path class="cls-2" d="M394,120.88a7.15,7.15,0,0,1-5.42-2.19,8.12,8.12,0,0,1-2.09-5.85v-.52a9.82,9.82,0,0,1,.93-4.35,7.26,7.26,0,0,1,2.6-3,6.55,6.55,0,0,1,3.63-1.08,6.13,6.13,0,0,1,5,2.1,9.11,9.11,0,0,1,1.77,6v1.17H389.29a5.82,5.82,0,0,0,1.42,3.91,4.45,4.45,0,0,0,3.44,1.49,4.88,4.88,0,0,0,2.51-.61,6.33,6.33,0,0,0,1.8-1.61l1.71,1.33A6.88,6.88,0,0,1,394,120.88Zm-.35-14.68a3.74,3.74,0,0,0-2.85,1.23,6,6,0,0,0-1.42,3.46h8.2v-.21a5.33,5.33,0,0,0-1.15-3.31A3.52,3.52,0,0,0,393.65,106.2Z"/><path class="cls-2" d="M409.38,104.2l.09,2.06a6,6,0,0,1,4.9-2.36q5.19,0,5.24,5.86v10.82h-2.8V109.74a3.77,3.77,0,0,0-.81-2.62,3.25,3.25,0,0,0-2.47-.85,4,4,0,0,0-2.39.73,4.93,4.93,0,0,0-1.6,1.91v11.67h-2.8V104.2Z"/><path class="cls-2" d="M430.73,100.23v4h3.06v2.17h-3.06v10.17a2.27,2.27,0,0,0,.41,1.48,1.72,1.72,0,0,0,1.39.49,6.78,6.78,0,0,0,1.33-.18v2.26a8.18,8.18,0,0,1-2.15.3,3.49,3.49,0,0,1-2.83-1.13,4.87,4.87,0,0,1-1-3.22V106.37h-3V104.2h3v-4Z"/><path class="cls-2" d="M450.27,119a6,6,0,0,1-4.8,1.92,5.09,5.09,0,0,1-4-1.52,6.58,6.58,0,0,1-1.38-4.5V104.2h2.8v10.58q0,3.72,3,3.72,3.21,0,4.27-2.39V104.2H453v16.38h-2.66Z"/><path class="cls-2" d="M468.26,106.71a8.43,8.43,0,0,0-1.38-.11,3.69,3.69,0,0,0-3.74,2.35v11.63h-2.8V104.2h2.72l0,1.89A4.36,4.36,0,0,1,467,103.9a2.85,2.85,0,0,1,1.24.21Z"/><path class="cls-2" d="M480.45,120.88a7.15,7.15,0,0,1-5.42-2.19,8.12,8.12,0,0,1-2.09-5.85v-.52a9.82,9.82,0,0,1,.93-4.35,7.26,7.26,0,0,1,2.6-3,6.55,6.55,0,0,1,3.63-1.08,6.13,6.13,0,0,1,5,2.1,9.11,9.11,0,0,1,1.77,6v1.17H475.74a5.82,5.82,0,0,0,1.42,3.91,4.45,4.45,0,0,0,3.44,1.49,4.88,4.88,0,0,0,2.51-.61,6.33,6.33,0,0,0,1.8-1.61l1.71,1.33A6.88,6.88,0,0,1,480.45,120.88Zm-.35-14.68a3.74,3.74,0,0,0-2.85,1.23,6,6,0,0,0-1.42,3.46H484v-.21a5.33,5.33,0,0,0-1.15-3.31A3.52,3.52,0,0,0,480.1,106.2Z"/><path class="cls-2" d="M510.52,118.6a4,4,0,0,0,2.62-.91,3.2,3.2,0,0,0,1.24-2.27H517a5.08,5.08,0,0,1-1,2.68,6.39,6.39,0,0,1-2.38,2,6.88,6.88,0,0,1-3.16.76,6.75,6.75,0,0,1-5.32-2.23,8.89,8.89,0,0,1-2-6.11v-.47a9.86,9.86,0,0,1,.88-4.25,6.68,6.68,0,0,1,2.52-2.89,7.16,7.16,0,0,1,3.88-1,6.57,6.57,0,0,1,4.58,1.65,5.9,5.9,0,0,1,1.95,4.28h-2.65a3.86,3.86,0,0,0-1.2-2.61,3.75,3.75,0,0,0-2.67-1,3.92,3.92,0,0,0-3.31,1.54,7.22,7.22,0,0,0-1.17,4.44v.53a7.07,7.07,0,0,0,1.17,4.36A3.94,3.94,0,0,0,510.52,118.6Z"/><path class="cls-2" d="M533.39,120.58a5.89,5.89,0,0,1-.39-1.73,6.25,6.25,0,0,1-4.66,2,5.78,5.78,0,0,1-4-1.37,4.43,4.43,0,0,1-1.55-3.47,4.63,4.63,0,0,1,1.94-4,9.17,9.17,0,0,1,5.47-1.42h2.72v-1.29a3.14,3.14,0,0,0-.88-2.34,3.53,3.53,0,0,0-2.59-.87,4.08,4.08,0,0,0-2.51.76,2.23,2.23,0,0,0-1,1.83h-2.82a3.86,3.86,0,0,1,.87-2.37,5.94,5.94,0,0,1,2.36-1.81,7.93,7.93,0,0,1,3.28-.67,6.47,6.47,0,0,1,4.43,1.42,5.11,5.11,0,0,1,1.67,3.9v7.54a9.21,9.21,0,0,0,.58,3.59v.24Zm-4.65-2.13a4.92,4.92,0,0,0,2.5-.68,4.11,4.11,0,0,0,1.71-1.77v-3.36h-2.19q-5.15,0-5.15,3a2.55,2.55,0,0,0,.88,2.06A3.38,3.38,0,0,0,528.74,118.44Z"/><path class="cls-2" d="M557.07,112.57a9.81,9.81,0,0,1-1.71,6,5.48,5.48,0,0,1-4.63,2.29A6,6,0,0,1,546,119v7.89h-2.8V104.2h2.56l.14,1.82a5.77,5.77,0,0,1,4.75-2.12,5.58,5.58,0,0,1,4.67,2.23,9.92,9.92,0,0,1,1.72,6.19Zm-2.8-.32a7.23,7.23,0,0,0-1.18-4.37,3.8,3.8,0,0,0-3.24-1.61,4.12,4.12,0,0,0-3.81,2.26v7.83a4.12,4.12,0,0,0,3.84,2.24,3.79,3.79,0,0,0,3.2-1.6A7.9,7.9,0,0,0,554.27,112.25Z"/><path class="cls-2" d="M563.75,99.86a1.67,1.67,0,0,1,.42-1.15,1.56,1.56,0,0,1,1.23-.47,1.59,1.59,0,0,1,1.24.47,1.66,1.66,0,0,1,.42,1.15,1.66,1.66,0,1,1-3.31,0Zm3,20.72H564V104.2h2.8Z"/><path class="cls-2" d="M578.15,100.23v4h3.06v2.17h-3.06v10.17a2.27,2.27,0,0,0,.41,1.48,1.72,1.72,0,0,0,1.39.49,6.78,6.78,0,0,0,1.33-.18v2.26a8.18,8.18,0,0,1-2.15.3,3.49,3.49,0,0,1-2.83-1.13,4.87,4.87,0,0,1-1-3.22V106.37h-3V104.2h3v-4Z"/><path class="cls-2" d="M597.69,120.58a5.89,5.89,0,0,1-.39-1.73,6.25,6.25,0,0,1-4.66,2,5.78,5.78,0,0,1-4-1.37,4.43,4.43,0,0,1-1.55-3.47,4.63,4.63,0,0,1,1.94-4,9.17,9.17,0,0,1,5.47-1.42h2.72v-1.29a3.14,3.14,0,0,0-.88-2.34,3.53,3.53,0,0,0-2.59-.87,4.08,4.08,0,0,0-2.51.76,2.23,2.23,0,0,0-1,1.83h-2.82a3.86,3.86,0,0,1,.87-2.37,5.94,5.94,0,0,1,2.36-1.81,7.93,7.93,0,0,1,3.28-.67,6.47,6.47,0,0,1,4.43,1.42,5.11,5.11,0,0,1,1.67,3.9v7.54a9.21,9.21,0,0,0,.58,3.59v.24ZM593,118.44a4.92,4.92,0,0,0,2.5-.68,4.11,4.11,0,0,0,1.71-1.77v-3.36h-2.19q-5.15,0-5.15,3a2.55,2.55,0,0,0,.88,2.06A3.38,3.38,0,0,0,593,118.44Z"/><path class="cls-2" d="M610.58,120.58h-2.8V97.33h2.8Z"/><path class="cls-2" d="M630.32,120.58V106.37h-2.59V104.2h2.59v-1.68a5.58,5.58,0,0,1,1.41-4.07,5.32,5.32,0,0,1,4-1.44,7.42,7.42,0,0,1,1.92.26l-.15,2.26a8,8,0,0,0-1.51-.14,2.73,2.73,0,0,0-2.1.8,3.23,3.23,0,0,0-.74,2.29v1.73h3.5v2.17h-3.5v14.21Z"/><path class="cls-2" d="M652.91,119a6,6,0,0,1-4.8,1.92,5.09,5.09,0,0,1-4-1.52,6.58,6.58,0,0,1-1.38-4.5V104.2h2.8v10.58q0,3.72,3,3.72,3.21,0,4.27-2.39V104.2h2.8v16.38H653Z"/><path class="cls-2" d="M665.64,104.2l.09,2.06a6,6,0,0,1,4.9-2.36q5.19,0,5.24,5.86v10.82h-2.8V109.74a3.77,3.77,0,0,0-.81-2.62,3.25,3.25,0,0,0-2.47-.85,4,4,0,0,0-2.39.73,4.93,4.93,0,0,0-1.6,1.91v11.67H663V104.2Z"/><path class="cls-2" d="M682.51,112.25a9.59,9.59,0,0,1,1.79-6.06,6.08,6.08,0,0,1,9.23-.33V97.33h2.8v23.25h-2.57l-.14-1.76a5.71,5.71,0,0,1-4.68,2.06,5.6,5.6,0,0,1-4.64-2.33,9.71,9.71,0,0,1-1.79-6.08Zm2.8.32a7.26,7.26,0,0,0,1.15,4.36,3.72,3.72,0,0,0,3.18,1.57,4.08,4.08,0,0,0,3.89-2.39v-7.52a4.12,4.12,0,0,0-3.86-2.32,3.74,3.74,0,0,0-3.21,1.59A8,8,0,0,0,685.31,112.57Z"/><path class="cls-2" d="M713.31,116.23a2.06,2.06,0,0,0-.86-1.76,8.23,8.23,0,0,0-3-1.08,14.11,14.11,0,0,1-3.38-1.09,4.81,4.81,0,0,1-1.85-1.51,3.63,3.63,0,0,1-.6-2.09,4.25,4.25,0,0,1,1.7-3.41,6.65,6.65,0,0,1,4.35-1.39,6.84,6.84,0,0,1,4.52,1.44A4.57,4.57,0,0,1,716,109h-2.82a2.53,2.53,0,0,0-1-2,3.66,3.66,0,0,0-2.46-.83,3.83,3.83,0,0,0-2.39.67,2.1,2.1,0,0,0-.86,1.74,1.7,1.7,0,0,0,.8,1.53,9.88,9.88,0,0,0,2.9,1,15.11,15.11,0,0,1,3.4,1.12,5,5,0,0,1,1.93,1.57,3.85,3.85,0,0,1,.63,2.23,4.19,4.19,0,0,1-1.76,3.52,7.36,7.36,0,0,1-4.56,1.32,8.25,8.25,0,0,1-3.48-.7,5.66,5.66,0,0,1-2.37-1.95,4.69,4.69,0,0,1-.86-2.7h2.8a2.9,2.9,0,0,0,1.13,2.23,4.37,4.37,0,0,0,2.78.83,4.52,4.52,0,0,0,2.55-.64A2,2,0,0,0,713.31,116.23Z"/><path class="cls-3" d="M179.19,44.08a17,17,0,1,0-17,17h0A17,17,0,0,0,179.19,44.08Z"/><path class="cls-4" d="M33,104.92a15.65,15.65,0,1,0-15.65,15.65h0A15.65,15.65,0,0,0,33,104.92Z"/><path class="cls-5" d="M132.65,39.74a18.54,18.54,0,1,0-18.54,18.54h0A18.54,18.54,0,0,0,132.65,39.74Z"/><path class="cls-6" d="M195,11.62a10.2,10.2,0,1,0-10.2,10.2h0A10.2,10.2,0,0,0,195,11.62Z"/><path class="cls-7" d="M56.4,86a8,8,0,1,0-8,8h0A8,8,0,0,0,56.4,86Z"/><path class="cls-8" d="M112,86a21.23,21.23,0,1,0-21.23,21.23h0A21.23,21.23,0,0,0,112,86Z"/></svg>