<svg id="Calque_1" data-name="Calque 1" xmlns="http://www.w3.org/2000/svg" viewBox="0 0 511.33 378.59"><defs><style>.cls-1{fill:#222;}.cls-2{fill:#555;}.cls-3{fill:#fcc30b;}.cls-4{fill:#c5192d;}.cls-5{fill:#4c9f38;}.cls-6{fill:#fd9d24;}.cls-7{fill:#a21942;}.cls-8{fill:#19486a;}</style></defs><title>InventuresI-square</title><path class="cls-1" d="M.78,256.88A7,7,0,0,1,3,251.78a7.46,7.46,0,0,1,5.5-2.17,8,8,0,0,1,5.61,2.07,7.09,7.09,0,0,1,0,10.4,8,8,0,0,1-5.61,2.07A7.45,7.45,0,0,1,3,262,7,7,0,0,1,.78,256.88ZM2.5,273.34H14.62v48.48H2.5Z"/><path class="cls-1" d="M29.37,273.34H40.88v7.78h.2a15.66,15.66,0,0,1,5.61-6.41,16.11,16.11,0,0,1,9.44-2.78,18.24,18.24,0,0,1,8.13,1.67A16,16,0,0,1,69.82,278,17.8,17.8,0,0,1,73,284.25a26.41,26.41,0,0,1,1,7.27v30.3H61.89V295a34.36,34.36,0,0,0-.3-4.44,12,12,0,0,0-1.31-4.19,8.72,8.72,0,0,0-2.78-3.08A8.17,8.17,0,0,0,52.8,282a10.37,10.37,0,0,0-5,1.16,10.73,10.73,0,0,0-3.48,3,13.19,13.19,0,0,0-2.07,4.19,16.72,16.72,0,0,0-.71,4.8v26.66H29.37Z"/><path class="cls-1" d="M80.87,273.34H94.1l12.73,35.35h.2l12.83-35.35h12.83L113.4,321.82H100.47Z"/><path class="cls-1" d="M186.22,298.19v1.62a13.17,13.17,0,0,1-.1,1.62H149.25a12,12,0,0,0,1.36,4.8,12.18,12.18,0,0,0,3.08,3.74,15.33,15.33,0,0,0,4.34,2.47,14.28,14.28,0,0,0,5.05.91,16.17,16.17,0,0,0,7.68-1.67,14.39,14.39,0,0,0,5.15-4.6l8.08,6.46q-7.17,9.7-20.81,9.7a29.61,29.61,0,0,1-10.4-1.77,24.53,24.53,0,0,1-8.23-5,22.55,22.55,0,0,1-5.45-7.93,27.33,27.33,0,0,1-2-10.66,27.83,27.83,0,0,1,2-10.66,23.73,23.73,0,0,1,13.53-13.43,27.22,27.22,0,0,1,10.15-1.87,25.59,25.59,0,0,1,9.34,1.67,20.28,20.28,0,0,1,7.42,4.95,23,23,0,0,1,4.9,8.18A33.8,33.8,0,0,1,186.22,298.19Zm-12.12-5.45a15,15,0,0,0-.66-4.44,9.92,9.92,0,0,0-5.66-6.31,12.56,12.56,0,0,0-5.1-1,13.62,13.62,0,0,0-9.24,3.28,12,12,0,0,0-4.19,8.43Z"/><path class="cls-1" d="M197.93,273.34h11.51v7.78h.2a15.66,15.66,0,0,1,5.61-6.41,16.11,16.11,0,0,1,9.44-2.78,18.24,18.24,0,0,1,8.13,1.67,16,16,0,0,1,5.55,4.39,17.8,17.8,0,0,1,3.18,6.26,26.41,26.41,0,0,1,1,7.27v30.3H230.45V295a34.36,34.36,0,0,0-.3-4.44,12,12,0,0,0-1.31-4.19,8.72,8.72,0,0,0-2.78-3.08,8.17,8.17,0,0,0-4.7-1.21,10.37,10.37,0,0,0-5,1.16,10.73,10.73,0,0,0-3.48,3,13.19,13.19,0,0,0-2.07,4.19,16.72,16.72,0,0,0-.71,4.8v26.66H197.93Z"/><path class="cls-1" d="M249.74,283v-9.7h8.48v-14h11.92v14h12.12V283H270.14v22.52a11,11,0,0,0,1.16,5.35q1.16,2.12,5.2,2.12a15.05,15.05,0,0,0,2.63-.25,10.54,10.54,0,0,0,2.52-.76l.4,9.49a20.06,20.06,0,0,1-3.84,1,27.09,27.09,0,0,1-4.24.35,19.35,19.35,0,0,1-7.88-1.36,11.93,11.93,0,0,1-4.8-3.74,13.81,13.81,0,0,1-2.42-5.45,31.64,31.64,0,0,1-.66-6.62V283Z"/><path class="cls-1" d="M335.29,321.82H323.77V314h-.2a15.68,15.68,0,0,1-5.61,6.41,16.12,16.12,0,0,1-9.44,2.78,18.23,18.23,0,0,1-8.13-1.67,16,16,0,0,1-5.55-4.39,17.7,17.7,0,0,1-3.18-6.26,26.31,26.31,0,0,1-1-7.27v-30.3h12.12v26.87a34.36,34.36,0,0,0,.3,4.44,12,12,0,0,0,1.31,4.19,8.69,8.69,0,0,0,2.78,3.08,8.15,8.15,0,0,0,4.7,1.21,10.43,10.43,0,0,0,5-1.16,10.57,10.57,0,0,0,3.54-3,13.19,13.19,0,0,0,2.07-4.19,16.74,16.74,0,0,0,.71-4.8V273.34h12.12Z"/><path class="cls-1" d="M349.83,273.34h11.61v8.08h.2a17.69,17.69,0,0,1,5.66-6.87,14.11,14.11,0,0,1,8.48-2.63q.71,0,1.52,0a5.66,5.66,0,0,1,1.41.25v11.11a17.13,17.13,0,0,0-2.07-.4,14.5,14.5,0,0,0-1.67-.1,12.85,12.85,0,0,0-6.67,1.52,12.1,12.1,0,0,0-3.94,3.64,13,13,0,0,0-1.92,4.34,16.85,16.85,0,0,0-.51,3.54v26H349.83Z"/><path class="cls-1" d="M431,298.19v1.62a13.17,13.17,0,0,1-.1,1.62H394.07a12,12,0,0,0,1.36,4.8,12.18,12.18,0,0,0,3.08,3.74,15.33,15.33,0,0,0,4.34,2.47,14.28,14.28,0,0,0,5.05.91,16.17,16.17,0,0,0,7.68-1.67,14.39,14.39,0,0,0,5.15-4.6l8.08,6.46q-7.17,9.7-20.81,9.7a29.61,29.61,0,0,1-10.4-1.77,24.53,24.53,0,0,1-8.23-5,22.55,22.55,0,0,1-5.45-7.93,27.33,27.33,0,0,1-2-10.66,27.83,27.83,0,0,1,2-10.66,23.73,23.73,0,0,1,13.53-13.43,27.22,27.22,0,0,1,10.15-1.87,25.59,25.59,0,0,1,9.34,1.67,20.28,20.28,0,0,1,7.42,4.95,23,23,0,0,1,4.9,8.18A33.8,33.8,0,0,1,431,298.19Zm-12.12-5.45a15,15,0,0,0-.66-4.44A9.92,9.92,0,0,0,412.6,282a12.56,12.56,0,0,0-5.1-1,13.62,13.62,0,0,0-9.24,3.28,12,12,0,0,0-4.19,8.43Z"/><path class="cls-1" d="M469.31,286.27a14,14,0,0,0-4.44-3.69,12.52,12.52,0,0,0-6.16-1.57,11.79,11.79,0,0,0-5.35,1.21,4.18,4.18,0,0,0-2.42,4,4.05,4.05,0,0,0,2.68,4,48.91,48.91,0,0,0,7.83,2.37,44.49,44.49,0,0,1,5.5,1.62,20.14,20.14,0,0,1,5,2.68,13.23,13.23,0,0,1,3.69,4.14,11.94,11.94,0,0,1,1.41,6,15.62,15.62,0,0,1-1.67,7.52,14.15,14.15,0,0,1-4.44,5,18.71,18.71,0,0,1-6.46,2.78,33.57,33.57,0,0,1-7.62.86,30.29,30.29,0,0,1-11-2.07,23.24,23.24,0,0,1-8.89-5.91l8-7.47a15.88,15.88,0,0,0,5.25,4.34,15,15,0,0,0,7.17,1.72,12.32,12.32,0,0,0,2.68-.3,9.09,9.09,0,0,0,2.52-1,5.23,5.23,0,0,0,1.87-1.77,5,5,0,0,0,.71-2.73,4.48,4.48,0,0,0-2.78-4.34,45,45,0,0,0-8.33-2.63,39.94,39.94,0,0,1-5.3-1.57,17.25,17.25,0,0,1-4.6-2.53,11.67,11.67,0,0,1-3.23-3.89,12.35,12.35,0,0,1-1.21-5.76,13.88,13.88,0,0,1,1.67-7,14.33,14.33,0,0,1,4.39-4.8,19.74,19.74,0,0,1,6.16-2.78,27.53,27.53,0,0,1,7.07-.91,29.78,29.78,0,0,1,10.25,1.82,17.32,17.32,0,0,1,7.93,5.55Z"/><path class="cls-2" d="M3,348.27A1.86,1.86,0,0,1,3.44,347a1.74,1.74,0,0,1,1.37-.52,1.76,1.76,0,0,1,1.38.52,1.84,1.84,0,0,1,.47,1.28,1.78,1.78,0,0,1-.47,1.26,1.79,1.79,0,0,1-1.38.51,1.77,1.77,0,0,1-1.37-.51A1.79,1.79,0,0,1,3,348.27Zm3.37,23.06H3.23V353.1H6.35Z"/><path class="cls-2" d="M17.89,353.1l.08,2a6.73,6.73,0,0,1,5.41-2.36q3.82,0,5.21,2.93a6.91,6.91,0,0,1,2.37-2.12,7,7,0,0,1,3.45-.81q6,0,6.1,6.35v12.21H37.38v-12a4.18,4.18,0,0,0-.89-2.92,3.93,3.93,0,0,0-3-1,4.13,4.13,0,0,0-2.88,1,4.2,4.2,0,0,0-1.33,2.79v12.1H26.14V359.38q0-4-3.89-4A4.17,4.17,0,0,0,18.05,358v13.31H14.94V353.1Z"/><path class="cls-2" d="M64.21,362.42a10.91,10.91,0,0,1-1.9,6.7,6.1,6.1,0,0,1-5.15,2.54,6.69,6.69,0,0,1-5.22-2.11v8.78H48.82V353.1h2.85l.15,2a6.42,6.42,0,0,1,5.29-2.36,6.22,6.22,0,0,1,5.2,2.48,11,11,0,0,1,1.91,6.89Zm-3.12-.35a8.05,8.05,0,0,0-1.31-4.87,4.23,4.23,0,0,0-3.61-1.79,4.58,4.58,0,0,0-4.25,2.51v8.71a4.59,4.59,0,0,0,4.28,2.49,4.21,4.21,0,0,0,3.56-1.78A8.79,8.79,0,0,0,61.1,362.06Z"/><path class="cls-2" d="M83,371.33a6.51,6.51,0,0,1-.44-1.92,7,7,0,0,1-5.19,2.26A6.43,6.43,0,0,1,73,370.14a4.93,4.93,0,0,1-1.73-3.87,5.15,5.15,0,0,1,2.17-4.42,10.21,10.21,0,0,1,6.09-1.58h3v-1.43a3.5,3.5,0,0,0-1-2.6,3.92,3.92,0,0,0-2.88-1,4.54,4.54,0,0,0-2.8.84,2.48,2.48,0,0,0-1.13,2H71.64a4.3,4.3,0,0,1,1-2.64,6.61,6.61,0,0,1,2.63-2,8.84,8.84,0,0,1,3.65-.74,7.21,7.21,0,0,1,4.94,1.58,5.69,5.69,0,0,1,1.85,4.34v8.39a10.26,10.26,0,0,0,.64,4v.27ZM77.87,369a5.48,5.48,0,0,0,2.78-.76,4.59,4.59,0,0,0,1.9-2v-3.74H80.11q-5.73,0-5.73,3.35a2.84,2.84,0,0,0,1,2.29A3.75,3.75,0,0,0,77.87,369Z"/><path class="cls-2" d="M101.49,369.12a4.49,4.49,0,0,0,2.91-1,3.55,3.55,0,0,0,1.38-2.53h2.95a5.66,5.66,0,0,1-1.08,3,7.09,7.09,0,0,1-2.65,2.26,7.66,7.66,0,0,1-3.51.84,7.51,7.51,0,0,1-5.92-2.48,9.9,9.9,0,0,1-2.2-6.8v-.52a11,11,0,0,1,1-4.73,7.43,7.43,0,0,1,2.8-3.22,8,8,0,0,1,4.32-1.15,7.31,7.31,0,0,1,5.1,1.84,6.56,6.56,0,0,1,2.17,4.77h-2.95a4.29,4.29,0,0,0-1.34-2.91,4.17,4.17,0,0,0-3-1.14A4.36,4.36,0,0,0,97.8,357,8,8,0,0,0,96.49,362v.59a7.87,7.87,0,0,0,1.3,4.85A4.38,4.38,0,0,0,101.49,369.12Z"/><path class="cls-2" d="M120.09,348.69v4.41h3.4v2.41h-3.4v11.32a2.54,2.54,0,0,0,.45,1.64,1.92,1.92,0,0,0,1.55.55,7.56,7.56,0,0,0,1.48-.2v2.51a9.07,9.07,0,0,1-2.39.33A3.88,3.88,0,0,1,118,370.4a5.43,5.43,0,0,1-1.06-3.59v-11.3h-3.32V353.1H117v-4.41Z"/><path class="cls-2" d="M148.93,367.1l4.51-14h3.18l-6.54,18.23h-2.38l-6.6-18.23h3.18Z"/><path class="cls-2" d="M170.6,371.66a8,8,0,0,1-6-2.43,9,9,0,0,1-2.33-6.51v-.57a10.94,10.94,0,0,1,1-4.84,8.08,8.08,0,0,1,2.9-3.33,7.29,7.29,0,0,1,4-1.21,6.83,6.83,0,0,1,5.53,2.34q2,2.34,2,6.71v1.3H165.36a6.47,6.47,0,0,0,1.57,4.35,5,5,0,0,0,3.83,1.66,5.43,5.43,0,0,0,2.8-.67,7,7,0,0,0,2-1.79l1.9,1.48A7.65,7.65,0,0,1,170.6,371.66Zm-.39-16.34A4.16,4.16,0,0,0,167,356.7a6.68,6.68,0,0,0-1.58,3.85h9.13v-.24a5.94,5.94,0,0,0-1.28-3.68A3.92,3.92,0,0,0,170.21,355.32Z"/><path class="cls-2" d="M187.88,353.1l.1,2.29a6.64,6.64,0,0,1,5.46-2.63q5.78,0,5.83,6.52v12h-3.12V359.27a4.2,4.2,0,0,0-.9-2.91,3.61,3.61,0,0,0-2.75-.94,4.5,4.5,0,0,0-2.66.81,5.49,5.49,0,0,0-1.79,2.12v13h-3.12V353.1Z"/><path class="cls-2" d="M211.82,348.69v4.41h3.4v2.41h-3.4v11.32a2.54,2.54,0,0,0,.45,1.64,1.92,1.92,0,0,0,1.55.55,7.56,7.56,0,0,0,1.48-.2v2.51a9.07,9.07,0,0,1-2.39.33,3.88,3.88,0,0,1-3.15-1.26,5.43,5.43,0,0,1-1.06-3.59v-11.3h-3.32V353.1h3.32v-4.41Z"/><path class="cls-2" d="M233.74,369.53a6.62,6.62,0,0,1-5.34,2.14A5.67,5.67,0,0,1,224,370a7.32,7.32,0,0,1-1.54-5V353.1h3.12v11.77q0,4.14,3.37,4.14,3.57,0,4.75-2.66V353.1h3.12v18.23h-3Z"/><path class="cls-2" d="M253.93,355.9a9.4,9.4,0,0,0-1.53-.12,4.11,4.11,0,0,0-4.16,2.61v12.94h-3.12V353.1h3l.05,2.11a4.85,4.85,0,0,1,4.35-2.44,3.19,3.19,0,0,1,1.38.24Z"/><path class="cls-2" d="M267.66,371.66a8,8,0,0,1-6-2.43,9,9,0,0,1-2.33-6.51v-.57a10.94,10.94,0,0,1,1-4.84,8.08,8.08,0,0,1,2.9-3.33,7.29,7.29,0,0,1,4-1.21,6.83,6.83,0,0,1,5.53,2.34q2,2.34,2,6.71v1.3H262.43a6.47,6.47,0,0,0,1.57,4.35,5,5,0,0,0,3.83,1.66,5.43,5.43,0,0,0,2.8-.67,7,7,0,0,0,2-1.79l1.9,1.48A7.65,7.65,0,0,1,267.66,371.66Zm-.39-16.34a4.16,4.16,0,0,0-3.17,1.37,6.68,6.68,0,0,0-1.58,3.85h9.13v-.24a5.94,5.94,0,0,0-1.28-3.68A3.92,3.92,0,0,0,267.28,355.32Z"/><path class="cls-2" d="M301.48,369.12a4.49,4.49,0,0,0,2.91-1,3.55,3.55,0,0,0,1.38-2.53h2.95a5.66,5.66,0,0,1-1.08,3,7.09,7.09,0,0,1-2.65,2.26,7.66,7.66,0,0,1-3.51.84,7.51,7.51,0,0,1-5.92-2.48,9.9,9.9,0,0,1-2.2-6.8v-.52a11,11,0,0,1,1-4.73,7.43,7.43,0,0,1,2.8-3.22,8,8,0,0,1,4.32-1.15,7.31,7.31,0,0,1,5.1,1.84,6.56,6.56,0,0,1,2.17,4.77h-2.95a4.29,4.29,0,0,0-1.34-2.91,4.17,4.17,0,0,0-3-1.14,4.36,4.36,0,0,0-3.68,1.71,8,8,0,0,0-1.31,4.94v.59a7.87,7.87,0,0,0,1.3,4.85A4.38,4.38,0,0,0,301.48,369.12Z"/><path class="cls-2" d="M327.1,371.33a6.51,6.51,0,0,1-.44-1.92,7,7,0,0,1-5.19,2.26,6.43,6.43,0,0,1-4.42-1.52,4.93,4.93,0,0,1-1.73-3.87,5.15,5.15,0,0,1,2.17-4.42,10.21,10.21,0,0,1,6.09-1.58h3v-1.43a3.5,3.5,0,0,0-1-2.6,3.92,3.92,0,0,0-2.88-1,4.54,4.54,0,0,0-2.8.84,2.48,2.48,0,0,0-1.13,2h-3.13a4.3,4.3,0,0,1,1-2.64,6.61,6.61,0,0,1,2.63-2,8.84,8.84,0,0,1,3.65-.74,7.21,7.21,0,0,1,4.94,1.58,5.69,5.69,0,0,1,1.85,4.34v8.39a10.26,10.26,0,0,0,.64,4v.27ZM321.93,369a5.48,5.48,0,0,0,2.78-.76,4.59,4.59,0,0,0,1.9-2v-3.74h-2.44q-5.73,0-5.73,3.35a2.84,2.84,0,0,0,1,2.29A3.75,3.75,0,0,0,321.93,369Z"/><path class="cls-2" d="M353.63,362.42a10.91,10.91,0,0,1-1.9,6.7,6.1,6.1,0,0,1-5.15,2.54,6.69,6.69,0,0,1-5.22-2.11v8.78h-3.12V353.1h2.85l.15,2a6.42,6.42,0,0,1,5.29-2.36,6.22,6.22,0,0,1,5.2,2.48,11,11,0,0,1,1.91,6.89Zm-3.12-.35a8.05,8.05,0,0,0-1.31-4.87,4.23,4.23,0,0,0-3.61-1.79,4.58,4.58,0,0,0-4.25,2.51v8.71a4.59,4.59,0,0,0,4.28,2.49,4.21,4.21,0,0,0,3.56-1.78A8.79,8.79,0,0,0,350.51,362.06Z"/><path class="cls-2" d="M361.23,348.27a1.86,1.86,0,0,1,.46-1.28,1.74,1.74,0,0,1,1.37-.52,1.76,1.76,0,0,1,1.38.52,1.84,1.84,0,0,1,.47,1.28,1.85,1.85,0,1,1-3.69,0Zm3.37,23.06h-3.12V353.1h3.12Z"/><path class="cls-2" d="M377.43,348.69v4.41h3.4v2.41h-3.4v11.32a2.54,2.54,0,0,0,.45,1.64,1.92,1.92,0,0,0,1.55.55,7.56,7.56,0,0,0,1.48-.2v2.51a9.07,9.07,0,0,1-2.39.33,3.88,3.88,0,0,1-3.15-1.26,5.43,5.43,0,0,1-1.06-3.59v-11.3H371V353.1h3.32v-4.41Z"/><path class="cls-2" d="M399.35,371.33a6.51,6.51,0,0,1-.44-1.92,7,7,0,0,1-5.19,2.26,6.43,6.43,0,0,1-4.42-1.52,4.93,4.93,0,0,1-1.73-3.87,5.15,5.15,0,0,1,2.17-4.42,10.21,10.21,0,0,1,6.09-1.58h3v-1.43a3.5,3.5,0,0,0-1-2.6,3.92,3.92,0,0,0-2.88-1,4.54,4.54,0,0,0-2.8.84,2.48,2.48,0,0,0-1.13,2h-3.13a4.3,4.3,0,0,1,1-2.64,6.61,6.61,0,0,1,2.63-2,8.84,8.84,0,0,1,3.65-.74,7.21,7.21,0,0,1,4.94,1.58,5.69,5.69,0,0,1,1.85,4.34v8.39a10.26,10.26,0,0,0,.64,4v.27ZM394.18,369a5.48,5.48,0,0,0,2.78-.76,4.59,4.59,0,0,0,1.9-2v-3.74h-2.44q-5.73,0-5.73,3.35a2.84,2.84,0,0,0,1,2.29A3.75,3.75,0,0,0,394.18,369Z"/><path class="cls-2" d="M413.87,371.33h-3.12V345.45h3.12Z"/><path class="cls-2" d="M436.18,371.33V355.51H433.3V353.1h2.88v-1.87a6.21,6.21,0,0,1,1.57-4.53,5.92,5.92,0,0,1,4.43-1.6,8.23,8.23,0,0,1,2.14.28l-.17,2.51a9,9,0,0,0-1.68-.15,3,3,0,0,0-2.34.89,3.6,3.6,0,0,0-.83,2.54v1.93h3.89v2.41H439.3v15.82Z"/><path class="cls-2" d="M461.5,369.53a6.62,6.62,0,0,1-5.34,2.14,5.67,5.67,0,0,1-4.44-1.69,7.32,7.32,0,0,1-1.54-5V353.1h3.12v11.77q0,4.14,3.37,4.14,3.57,0,4.75-2.66V353.1h3.12v18.23h-3Z"/><path class="cls-2" d="M475.84,353.1l.1,2.29a6.64,6.64,0,0,1,5.46-2.63q5.78,0,5.83,6.52v12h-3.12V359.27a4.2,4.2,0,0,0-.9-2.91,3.61,3.61,0,0,0-2.75-.94,4.5,4.5,0,0,0-2.66.81,5.49,5.49,0,0,0-1.79,2.12v13h-3.12V353.1Z"/><path class="cls-2" d="M494.79,362.06a10.68,10.68,0,0,1,2-6.75,6.76,6.76,0,0,1,10.28-.36v-9.5h3.12v25.88H507.3l-.15-2a6.35,6.35,0,0,1-5.21,2.29,6.22,6.22,0,0,1-5.16-2.59,10.79,10.79,0,0,1-2-6.77Zm3.12.35a8.08,8.08,0,0,0,1.28,4.85,4.14,4.14,0,0,0,3.54,1.75,4.55,4.55,0,0,0,4.33-2.66V358a4.58,4.58,0,0,0-4.3-2.58,4.16,4.16,0,0,0-3.57,1.77A8.9,8.9,0,0,0,497.9,362.42Z"/><rect class="cls-1" x="498.49" y="261.09" width="12.16" height="63.67"/><path class="cls-3" d="M393.49,72.3A28.71,28.71,0,1,0,364.79,101h0A28.71,28.71,0,0,0,393.49,72.3Z"/><path class="cls-4" d="M146.9,174.95a26.41,26.41,0,1,0-26.41,26.41h0A26.41,26.41,0,0,0,146.9,174.95Z"/><path class="cls-5" d="M315,65a31.28,31.28,0,1,0-31.28,31.28h0A31.28,31.28,0,0,0,315,65Z"/><path class="cls-6" d="M420.21,17.53A17.21,17.21,0,1,0,403,34.74h0A17.21,17.21,0,0,0,420.21,17.53Z"/><path class="cls-7" d="M186.32,143.1a13.53,13.53,0,1,0-13.53,13.53h0A13.53,13.53,0,0,0,186.32,143.1Z"/><path class="cls-8" d="M280.14,143.1a35.83,35.83,0,1,0-35.83,35.83h0A35.83,35.83,0,0,0,280.14,143.1Z"/></svg>