<svg id="Calque_1" data-name="Calque 1" xmlns="http://www.w3.org/2000/svg" viewBox="0 0 691 142.51"><defs><style>.cls-1{fill:#3ebdf7;}.cls-2{fill:#222;}.cls-3{fill:#555;}</style></defs><title>Inventures-1</title><path class="cls-1" d="M36.89,80.26c9,3.3,17.2,9.23,23.46,14.59,1.45-1.51,3.44-3.49,5.85-5.73C59.34,83.17,50,76.45,39.69,72.63A87.28,87.28,0,0,0,8.16,66.93c0,.07,0,.15,0,.22a61.71,61.71,0,0,0,.53,7.92A79.42,79.42,0,0,1,36.89,80.26Z"/><path class="cls-1" d="M113.17,109.47l.65-.23A61.44,61.44,0,0,0,122,98.49a85.53,85.53,0,0,0-11.62,3.36c-16.3,6-31.41,20.89-36.58,26.35a61,61,0,0,0,14.77-2.9C95.13,119.53,104.07,112.83,113.17,109.47Z"/><path class="cls-1" d="M72.61,120.7c.17-.19,17.34-19.51,35.09-26A77.54,77.54,0,0,1,126,90.37a60.73,60.73,0,0,0,2.76-8.44A86.39,86.39,0,0,0,104.9,87c-19.66,7.24-37.62,27.43-38.45,28.37A110.14,110.14,0,0,1,55,126.67a61.12,61.12,0,0,0,10.39,1.56A103,103,0,0,0,72.61,120.7Z"/><path class="cls-1" d="M67.15,105.88c.17-.19,17.33-19.5,35.09-26a78.78,78.78,0,0,1,27.84-4.77,61.71,61.71,0,0,0,.53-7.92c0-.08,0-.15,0-.23a86.81,86.81,0,0,0-31.17,5.3C79.77,79.47,61.81,99.66,61,100.59a112.93,112.93,0,0,1-22.36,19.49,60.94,60.94,0,0,0,8.46,4.09A119,119,0,0,0,67.15,105.88Z"/><path class="cls-1" d="M49.92,105.66c2.52-2.34,4.5-4.37,5.83-5.81a82.78,82.78,0,0,0-21.52-12.4A91,91,0,0,0,10,82a60.74,60.74,0,0,0,2.78,8.48,84.13,84.13,0,0,1,18.67,4.62A73.06,73.06,0,0,1,49.92,105.66Z"/><path class="cls-1" d="M37.43,115.63c2.49-1.67,4.83-3.44,7-5.19a75.59,75.59,0,0,0-15.63-8.17,97,97,0,0,0-11.85-3.53,61.45,61.45,0,0,0,8.43,10.95l.61.22A63.3,63.3,0,0,1,37.43,115.63Z"/><path class="cls-1" d="M101.14,18.21c-2.43,1.67-4.74,3.44-6.87,5.19a73.69,73.69,0,0,0,15.92,8.54,85.86,85.86,0,0,0,11.47,3.33,61.47,61.47,0,0,0-8.49-10.89l-.17-.06A61.73,61.73,0,0,1,101.14,18.21Z"/><path class="cls-1" d="M39.53,61.17c21-7.75,37.74-27.54,38.38-28.29a129.69,129.69,0,0,1,21.72-19,60.92,60.92,0,0,0-8.44-4A137.13,137.13,0,0,0,71.75,27.58c-.16.19-16.06,19-35,26a79.49,79.49,0,0,1-28,5.19,61.68,61.68,0,0,0-.58,8.15H9.1A88,88,0,0,0,39.53,61.17Z"/><path class="cls-1" d="M72.45,18.06A129.43,129.43,0,0,1,83.28,7.53,61.15,61.15,0,0,0,72.85,6c-3.86,3.69-6.27,6.4-6.56,6.73s-16,19-35,26A84.34,84.34,0,0,1,13,43.3a60.76,60.76,0,0,0-2.88,8.51,91.07,91.07,0,0,0,24-5.46C55.11,38.6,71.82,18.82,72.45,18.06Z"/><path class="cls-1" d="M64.39,6.14a60.91,60.91,0,0,0-15.1,3.17C43.13,14.6,35,20.44,26.18,23.77A61.49,61.49,0,0,0,17.31,35a97.71,97.71,0,0,0,11.31-3.41C45,25.48,58.84,12.08,64.39,6.14Z"/><path class="cls-1" d="M88.81,28.17c-2.51,2.32-4.54,4.36-5.86,5.74,6.33,5,13.91,10,21.79,12.86a86.47,86.47,0,0,0,24,5.1,60.75,60.75,0,0,0-2.85-8.44,77.42,77.42,0,0,1-18.3-4.29C100.94,36.71,94.41,32.5,88.81,28.17Z"/><path class="cls-1" d="M102.08,54c-8.68-3.19-17.22-9.46-23.7-15-1.44,1.54-3.4,3.54-5.78,5.77,7.09,6.14,16.65,13.2,26.68,16.9a87,87,0,0,0,30,5.32l1.33,0a61.69,61.69,0,0,0-.58-8.13A78.71,78.71,0,0,1,102.08,54Z"/><path class="cls-2" d="M173.61,13.44a7,7,0,0,1,2.17-5.1,7.46,7.46,0,0,1,5.5-2.17,8,8,0,0,1,5.61,2.07,6.74,6.74,0,0,1,2.27,5.2,6.74,6.74,0,0,1-2.27,5.2,8,8,0,0,1-5.61,2.07,7.45,7.45,0,0,1-5.5-2.17A7,7,0,0,1,173.61,13.44Zm1.72,16.46h12.12V78.38H175.33Z"/><path class="cls-2" d="M202.2,29.9h11.51v7.78h.2a15.66,15.66,0,0,1,5.61-6.41A16.11,16.11,0,0,1,229,28.49a18.24,18.24,0,0,1,8.13,1.67,16,16,0,0,1,5.55,4.39,17.8,17.8,0,0,1,3.18,6.26,26.41,26.41,0,0,1,1,7.27v30.3H234.72V51.52a34.36,34.36,0,0,0-.3-4.44,12,12,0,0,0-1.31-4.19,8.72,8.72,0,0,0-2.78-3.08,8.17,8.17,0,0,0-4.7-1.21,10.37,10.37,0,0,0-5,1.16,10.73,10.73,0,0,0-3.48,3A13.19,13.19,0,0,0,215,46.92a16.72,16.72,0,0,0-.71,4.8V78.38H202.2Z"/><path class="cls-2" d="M253.71,29.9h13.23l12.73,35.35h.2L292.69,29.9h12.83L286.23,78.38H273.3Z"/><path class="cls-2" d="M359,54.75v1.62a13.17,13.17,0,0,1-.1,1.62H322.08a12,12,0,0,0,1.36,4.8,12.18,12.18,0,0,0,3.08,3.74A15.33,15.33,0,0,0,330.87,69a14.28,14.28,0,0,0,5.05.91,16.17,16.17,0,0,0,7.68-1.67,14.39,14.39,0,0,0,5.15-4.6l8.08,6.46q-7.17,9.7-20.81,9.7A29.61,29.61,0,0,1,325.62,78a24.53,24.53,0,0,1-8.23-5,22.55,22.55,0,0,1-5.45-7.93,27.33,27.33,0,0,1-2-10.66,27.83,27.83,0,0,1,2-10.66,23.73,23.73,0,0,1,13.53-13.43,27.22,27.22,0,0,1,10.15-1.87A25.59,25.59,0,0,1,345,30.16a20.28,20.28,0,0,1,7.42,4.95,23,23,0,0,1,4.9,8.18A33.8,33.8,0,0,1,359,54.75ZM346.93,49.3a15,15,0,0,0-.66-4.44,9.92,9.92,0,0,0-5.66-6.31,12.56,12.56,0,0,0-5.1-1,13.62,13.62,0,0,0-9.24,3.28,12,12,0,0,0-4.19,8.43Z"/><path class="cls-2" d="M370.76,29.9h11.51v7.78h.2a15.66,15.66,0,0,1,5.61-6.41,16.11,16.11,0,0,1,9.44-2.78,18.24,18.24,0,0,1,8.13,1.67,16,16,0,0,1,5.55,4.39,17.8,17.8,0,0,1,3.18,6.26,26.41,26.41,0,0,1,1,7.27v30.3H403.28V51.52a34.36,34.36,0,0,0-.3-4.44,12,12,0,0,0-1.31-4.19,8.72,8.72,0,0,0-2.78-3.08,8.17,8.17,0,0,0-4.7-1.21,10.37,10.37,0,0,0-5,1.16,10.73,10.73,0,0,0-3.48,3,13.19,13.19,0,0,0-2.07,4.19,16.72,16.72,0,0,0-.71,4.8V78.38H370.76Z"/><path class="cls-2" d="M422.57,39.6V29.9h8.48v-14H443v14h12.12v9.7H443V62.12a11,11,0,0,0,1.16,5.35q1.16,2.12,5.2,2.12a15.05,15.05,0,0,0,2.63-.25,10.54,10.54,0,0,0,2.52-.76l.4,9.49a20.06,20.06,0,0,1-3.84,1,27.09,27.09,0,0,1-4.24.35A19.35,19.35,0,0,1,438.93,78a11.93,11.93,0,0,1-4.8-3.74,13.81,13.81,0,0,1-2.42-5.45,31.64,31.64,0,0,1-.66-6.62V39.6Z"/><path class="cls-2" d="M508.12,78.38H496.61V70.61h-.2A15.68,15.68,0,0,1,490.8,77a16.12,16.12,0,0,1-9.44,2.78,18.23,18.23,0,0,1-8.13-1.67,16,16,0,0,1-5.55-4.39,17.7,17.7,0,0,1-3.18-6.26,26.31,26.31,0,0,1-1-7.27V29.9H475.6V56.77a34.36,34.36,0,0,0,.3,4.44,12,12,0,0,0,1.31,4.19A8.69,8.69,0,0,0,480,68.49a8.15,8.15,0,0,0,4.7,1.21,10.43,10.43,0,0,0,5-1.16,10.57,10.57,0,0,0,3.54-3,13.19,13.19,0,0,0,2.07-4.19,16.74,16.74,0,0,0,.71-4.8V29.9h12.12Z"/><path class="cls-2" d="M522.66,29.9h11.61V38h.2a17.69,17.69,0,0,1,5.66-6.87,14.11,14.11,0,0,1,8.48-2.63q.71,0,1.52,0a5.66,5.66,0,0,1,1.41.25V39.9a17.13,17.13,0,0,0-2.07-.4,14.5,14.5,0,0,0-1.67-.1,12.85,12.85,0,0,0-6.67,1.52,12.1,12.1,0,0,0-3.94,3.64,13,13,0,0,0-1.92,4.34,16.85,16.85,0,0,0-.51,3.54v26H522.66Z"/><path class="cls-2" d="M603.87,54.75v1.62a13.17,13.17,0,0,1-.1,1.62H566.9a12,12,0,0,0,1.36,4.8,12.18,12.18,0,0,0,3.08,3.74A15.33,15.33,0,0,0,575.69,69a14.28,14.28,0,0,0,5.05.91,16.17,16.17,0,0,0,7.68-1.67,14.39,14.39,0,0,0,5.15-4.6l8.08,6.46q-7.17,9.7-20.81,9.7A29.61,29.61,0,0,1,570.43,78a24.53,24.53,0,0,1-8.23-5,22.55,22.55,0,0,1-5.45-7.93,27.33,27.33,0,0,1-2-10.66,27.83,27.83,0,0,1,2-10.66,23.73,23.73,0,0,1,13.53-13.43,27.22,27.22,0,0,1,10.15-1.87,25.59,25.59,0,0,1,9.34,1.67,20.28,20.28,0,0,1,7.42,4.95,23,23,0,0,1,4.9,8.18A33.8,33.8,0,0,1,603.87,54.75ZM591.75,49.3a15,15,0,0,0-.66-4.44,9.92,9.92,0,0,0-5.66-6.31,12.56,12.56,0,0,0-5.1-1,13.62,13.62,0,0,0-9.24,3.28,12,12,0,0,0-4.19,8.43Z"/><path class="cls-2" d="M642.14,42.83a14,14,0,0,0-4.44-3.69,12.52,12.52,0,0,0-6.16-1.57,11.79,11.79,0,0,0-5.35,1.21,4.18,4.18,0,0,0-2.42,4,4.05,4.05,0,0,0,2.68,4,48.91,48.91,0,0,0,7.83,2.37,44.49,44.49,0,0,1,5.5,1.62,20.14,20.14,0,0,1,5,2.68,13.23,13.23,0,0,1,3.69,4.14,11.94,11.94,0,0,1,1.41,6,15.62,15.62,0,0,1-1.67,7.52,14.15,14.15,0,0,1-4.44,5,18.71,18.71,0,0,1-6.46,2.78,33.57,33.57,0,0,1-7.62.86,30.29,30.29,0,0,1-11-2.07,23.24,23.24,0,0,1-8.89-5.91l8-7.47a15.88,15.88,0,0,0,5.25,4.34,15,15,0,0,0,7.17,1.72,12.32,12.32,0,0,0,2.68-.3,9.09,9.09,0,0,0,2.52-1,5.23,5.23,0,0,0,1.87-1.77,5,5,0,0,0,.71-2.73,4.48,4.48,0,0,0-2.78-4.34,45,45,0,0,0-8.33-2.63,39.94,39.94,0,0,1-5.3-1.57,17.25,17.25,0,0,1-4.6-2.53,11.67,11.67,0,0,1-3.23-3.89,12.35,12.35,0,0,1-1.21-5.76,13.88,13.88,0,0,1,1.67-7,14.33,14.33,0,0,1,4.39-4.8,19.74,19.74,0,0,1,6.16-2.78,27.53,27.53,0,0,1,7.07-.91,29.78,29.78,0,0,1,10.25,1.82A17.32,17.32,0,0,1,650,35.86Z"/><path class="cls-3" d="M175.81,104.83a1.86,1.86,0,0,1,.46-1.28,1.74,1.74,0,0,1,1.37-.52,1.76,1.76,0,0,1,1.38.52,1.84,1.84,0,0,1,.47,1.28,1.85,1.85,0,1,1-3.69,0Zm3.37,23.06h-3.12V109.66h3.12Z"/><path class="cls-3" d="M190.72,109.66l.08,2a6.73,6.73,0,0,1,5.41-2.36q3.82,0,5.21,2.93a6.91,6.91,0,0,1,2.37-2.12,7,7,0,0,1,3.45-.81q6,0,6.1,6.35v12.21h-3.12v-12a4.18,4.18,0,0,0-.89-2.92,3.93,3.93,0,0,0-3-1,4.13,4.13,0,0,0-2.88,1,4.2,4.2,0,0,0-1.33,2.79v12.1H199V115.95q0-4-3.89-4a4.17,4.17,0,0,0-4.19,2.61v13.31h-3.12V109.66Z"/><path class="cls-3" d="M237,119a10.91,10.91,0,0,1-1.9,6.7,6.1,6.1,0,0,1-5.15,2.54,6.69,6.69,0,0,1-5.22-2.11v8.78h-3.12V109.66h2.85l.15,2a6.42,6.42,0,0,1,5.29-2.36,6.22,6.22,0,0,1,5.2,2.48,11,11,0,0,1,1.91,6.89Zm-3.12-.35a8.05,8.05,0,0,0-1.31-4.87A4.23,4.23,0,0,0,229,112a4.58,4.58,0,0,0-4.25,2.51v8.71a4.59,4.59,0,0,0,4.28,2.49,4.21,4.21,0,0,0,3.56-1.78A8.79,8.79,0,0,0,233.93,118.63Z"/><path class="cls-3" d="M255.88,127.89a6.51,6.51,0,0,1-.44-1.92,7,7,0,0,1-5.19,2.26,6.43,6.43,0,0,1-4.42-1.52,4.93,4.93,0,0,1-1.73-3.87,5.15,5.15,0,0,1,2.17-4.42,10.21,10.21,0,0,1,6.09-1.58h3v-1.43a3.5,3.5,0,0,0-1-2.6,3.92,3.92,0,0,0-2.88-1,4.54,4.54,0,0,0-2.8.84,2.48,2.48,0,0,0-1.13,2h-3.13a4.3,4.3,0,0,1,1-2.64,6.61,6.61,0,0,1,2.63-2,8.84,8.84,0,0,1,3.65-.74,7.21,7.21,0,0,1,4.94,1.58,5.69,5.69,0,0,1,1.85,4.34v8.39a10.26,10.26,0,0,0,.64,4v.27Zm-5.17-2.37a5.48,5.48,0,0,0,2.78-.76,4.59,4.59,0,0,0,1.9-2V119h-2.44q-5.73,0-5.73,3.35a2.84,2.84,0,0,0,1,2.29A3.75,3.75,0,0,0,250.71,125.52Z"/><path class="cls-3" d="M274.33,125.68a4.49,4.49,0,0,0,2.91-1,3.55,3.55,0,0,0,1.38-2.53h2.95a5.66,5.66,0,0,1-1.08,3,7.09,7.09,0,0,1-2.65,2.26,7.66,7.66,0,0,1-3.51.84,7.51,7.51,0,0,1-5.92-2.48,9.9,9.9,0,0,1-2.2-6.8v-.52a11,11,0,0,1,1-4.73,7.43,7.43,0,0,1,2.8-3.22,8,8,0,0,1,4.32-1.15,7.31,7.31,0,0,1,5.1,1.84,6.56,6.56,0,0,1,2.17,4.77h-2.95a4.29,4.29,0,0,0-1.34-2.91,4.17,4.17,0,0,0-3-1.14,4.36,4.36,0,0,0-3.68,1.71,8,8,0,0,0-1.31,4.94v.59a7.87,7.87,0,0,0,1.3,4.85A4.38,4.38,0,0,0,274.33,125.68Z"/><path class="cls-3" d="M292.92,105.25v4.41h3.4v2.41h-3.4v11.32a2.54,2.54,0,0,0,.45,1.64,1.92,1.92,0,0,0,1.55.55,7.56,7.56,0,0,0,1.48-.2v2.51a9.07,9.07,0,0,1-2.39.33,3.88,3.88,0,0,1-3.15-1.26,5.43,5.43,0,0,1-1.06-3.59v-11.3h-3.32v-2.41h3.32v-4.41Z"/><path class="cls-3" d="M321.76,123.66l4.51-14h3.18l-6.54,18.23h-2.38l-6.6-18.23h3.18Z"/><path class="cls-3" d="M343.43,128.23a8,8,0,0,1-6-2.43,9,9,0,0,1-2.33-6.51v-.57a10.94,10.94,0,0,1,1-4.84,8.08,8.08,0,0,1,2.9-3.33,7.29,7.29,0,0,1,4-1.21,6.83,6.83,0,0,1,5.53,2.34q2,2.34,2,6.71v1.3H338.19a6.47,6.47,0,0,0,1.57,4.35,5,5,0,0,0,3.83,1.66,5.43,5.43,0,0,0,2.8-.67,7,7,0,0,0,2-1.79l1.9,1.48A7.65,7.65,0,0,1,343.43,128.23ZM343,111.89a4.16,4.16,0,0,0-3.17,1.37,6.68,6.68,0,0,0-1.58,3.85h9.13v-.24a5.94,5.94,0,0,0-1.28-3.68A3.92,3.92,0,0,0,343,111.89Z"/><path class="cls-3" d="M360.71,109.66l.1,2.29a6.64,6.64,0,0,1,5.46-2.63q5.78,0,5.83,6.52v12H369V115.83a4.2,4.2,0,0,0-.9-2.91,3.61,3.61,0,0,0-2.75-.94,4.5,4.5,0,0,0-2.66.81,5.49,5.49,0,0,0-1.79,2.12v13h-3.12V109.66Z"/><path class="cls-3" d="M384.65,105.25v4.41h3.4v2.41h-3.4v11.32a2.54,2.54,0,0,0,.45,1.64,1.92,1.92,0,0,0,1.55.55,7.56,7.56,0,0,0,1.48-.2v2.51a9.07,9.07,0,0,1-2.39.33A3.88,3.88,0,0,1,382.6,127a5.43,5.43,0,0,1-1.06-3.59v-11.3h-3.32v-2.41h3.32v-4.41Z"/><path class="cls-3" d="M406.57,126.09a6.62,6.62,0,0,1-5.34,2.14,5.67,5.67,0,0,1-4.44-1.69,7.32,7.32,0,0,1-1.54-5V109.66h3.12v11.77q0,4.14,3.37,4.14,3.57,0,4.75-2.66V109.66h3.12v18.23h-3Z"/><path class="cls-3" d="M426.77,112.46a9.4,9.4,0,0,0-1.53-.12,4.11,4.11,0,0,0-4.16,2.61v12.94H418V109.66h3l.05,2.11a4.85,4.85,0,0,1,4.35-2.44,3.19,3.19,0,0,1,1.38.24Z"/><path class="cls-3" d="M440.5,128.23a8,8,0,0,1-6-2.43,9,9,0,0,1-2.33-6.51v-.57a10.94,10.94,0,0,1,1-4.84,8.08,8.08,0,0,1,2.9-3.33,7.29,7.29,0,0,1,4-1.21,6.83,6.83,0,0,1,5.53,2.34q2,2.34,2,6.71v1.3H435.26a6.47,6.47,0,0,0,1.57,4.35,5,5,0,0,0,3.83,1.66,5.43,5.43,0,0,0,2.8-.67,7,7,0,0,0,2-1.79l1.9,1.48A7.65,7.65,0,0,1,440.5,128.23Zm-.39-16.34a4.16,4.16,0,0,0-3.17,1.37,6.68,6.68,0,0,0-1.58,3.85h9.13v-.24a5.94,5.94,0,0,0-1.28-3.68A3.92,3.92,0,0,0,440.11,111.89Z"/><path class="cls-3" d="M474.31,125.68a4.49,4.49,0,0,0,2.91-1,3.55,3.55,0,0,0,1.38-2.53h2.95a5.66,5.66,0,0,1-1.08,3,7.09,7.09,0,0,1-2.65,2.26,7.66,7.66,0,0,1-3.51.84,7.51,7.51,0,0,1-5.92-2.48,9.9,9.9,0,0,1-2.2-6.8v-.52a11,11,0,0,1,1-4.73,7.43,7.43,0,0,1,2.8-3.22,8,8,0,0,1,4.32-1.15,7.31,7.31,0,0,1,5.1,1.84,6.56,6.56,0,0,1,2.17,4.77H478.6a4.29,4.29,0,0,0-1.34-2.91,4.17,4.17,0,0,0-3-1.14,4.36,4.36,0,0,0-3.68,1.71,8,8,0,0,0-1.31,4.94v.59a7.87,7.87,0,0,0,1.3,4.85A4.38,4.38,0,0,0,474.31,125.68Z"/><path class="cls-3" d="M499.93,127.89a6.51,6.51,0,0,1-.44-1.92,7,7,0,0,1-5.19,2.26,6.43,6.43,0,0,1-4.42-1.52,4.93,4.93,0,0,1-1.73-3.87,5.15,5.15,0,0,1,2.17-4.42,10.21,10.21,0,0,1,6.09-1.58h3v-1.43a3.5,3.5,0,0,0-1-2.6,3.92,3.92,0,0,0-2.88-1,4.54,4.54,0,0,0-2.8.84,2.48,2.48,0,0,0-1.13,2h-3.13a4.3,4.3,0,0,1,1-2.64,6.61,6.61,0,0,1,2.63-2,8.84,8.84,0,0,1,3.65-.74,7.21,7.21,0,0,1,4.94,1.58,5.69,5.69,0,0,1,1.85,4.34v8.39a10.26,10.26,0,0,0,.64,4v.27Zm-5.17-2.37a5.48,5.48,0,0,0,2.78-.76,4.59,4.59,0,0,0,1.9-2V119H497q-5.73,0-5.73,3.35a2.84,2.84,0,0,0,1,2.29A3.75,3.75,0,0,0,494.76,125.52Z"/><path class="cls-3" d="M526.46,119a10.91,10.91,0,0,1-1.9,6.7,6.1,6.1,0,0,1-5.15,2.54,6.69,6.69,0,0,1-5.22-2.11v8.78h-3.12V109.66h2.85l.15,2a6.42,6.42,0,0,1,5.29-2.36,6.22,6.22,0,0,1,5.2,2.48,11,11,0,0,1,1.91,6.89Zm-3.12-.35a8.05,8.05,0,0,0-1.31-4.87,4.23,4.23,0,0,0-3.61-1.79,4.58,4.58,0,0,0-4.25,2.51v8.71a4.59,4.59,0,0,0,4.28,2.49,4.21,4.21,0,0,0,3.56-1.78A8.79,8.79,0,0,0,523.35,118.63Z"/><path class="cls-3" d="M534.06,104.83a1.86,1.86,0,0,1,.46-1.28,1.74,1.74,0,0,1,1.37-.52,1.76,1.76,0,0,1,1.38.52,1.84,1.84,0,0,1,.47,1.28,1.85,1.85,0,1,1-3.69,0Zm3.37,23.06h-3.12V109.66h3.12Z"/><path class="cls-3" d="M550.27,105.25v4.41h3.4v2.41h-3.4v11.32a2.54,2.54,0,0,0,.45,1.64,1.92,1.92,0,0,0,1.55.55,7.56,7.56,0,0,0,1.48-.2v2.51a9.07,9.07,0,0,1-2.39.33,3.88,3.88,0,0,1-3.15-1.26,5.43,5.43,0,0,1-1.06-3.59v-11.3h-3.32v-2.41h3.32v-4.41Z"/><path class="cls-3" d="M572.18,127.89a6.51,6.51,0,0,1-.44-1.92,7,7,0,0,1-5.19,2.26,6.43,6.43,0,0,1-4.42-1.52,4.93,4.93,0,0,1-1.73-3.87,5.15,5.15,0,0,1,2.17-4.42,10.21,10.21,0,0,1,6.09-1.58h3v-1.43a3.5,3.5,0,0,0-1-2.6,3.92,3.92,0,0,0-2.88-1,4.54,4.54,0,0,0-2.8.84,2.48,2.48,0,0,0-1.13,2h-3.13a4.3,4.3,0,0,1,1-2.64,6.61,6.61,0,0,1,2.63-2,8.84,8.84,0,0,1,3.65-.74A7.21,7.21,0,0,1,573,110.9a5.69,5.69,0,0,1,1.85,4.34v8.39a10.26,10.26,0,0,0,.64,4v.27ZM567,125.52a5.48,5.48,0,0,0,2.78-.76,4.59,4.59,0,0,0,1.9-2V119h-2.44q-5.73,0-5.73,3.35a2.84,2.84,0,0,0,1,2.29A3.75,3.75,0,0,0,567,125.52Z"/><path class="cls-3" d="M586.71,127.89h-3.12V102h3.12Z"/><path class="cls-3" d="M609,127.89V112.07h-2.88v-2.41H609v-1.87a6.21,6.21,0,0,1,1.57-4.53,5.92,5.92,0,0,1,4.43-1.6,8.23,8.23,0,0,1,2.14.28l-.17,2.51a9,9,0,0,0-1.68-.15,3,3,0,0,0-2.34.89,3.6,3.6,0,0,0-.83,2.54v1.93H616v2.41h-3.89v15.82Z"/><path class="cls-3" d="M634.33,126.09a6.62,6.62,0,0,1-5.34,2.14,5.67,5.67,0,0,1-4.44-1.69,7.32,7.32,0,0,1-1.54-5V109.66h3.12v11.77q0,4.14,3.37,4.14,3.57,0,4.75-2.66V109.66h3.12v18.23h-3Z"/><path class="cls-3" d="M648.67,109.66l.1,2.29a6.64,6.64,0,0,1,5.46-2.63q5.78,0,5.83,6.52v12h-3.12V115.83a4.2,4.2,0,0,0-.9-2.91,3.61,3.61,0,0,0-2.75-.94,4.5,4.5,0,0,0-2.66.81,5.49,5.49,0,0,0-1.79,2.12v13h-3.12V109.66Z"/><path class="cls-3" d="M667.62,118.63a10.68,10.68,0,0,1,2-6.75,6.76,6.76,0,0,1,10.28-.36V102H683v25.88h-2.86l-.15-2a6.35,6.35,0,0,1-5.21,2.29,6.22,6.22,0,0,1-5.16-2.59,10.79,10.79,0,0,1-2-6.77Zm3.12.35a8.08,8.08,0,0,0,1.28,4.85,4.14,4.14,0,0,0,3.54,1.75,4.55,4.55,0,0,0,4.33-2.66v-8.37a4.58,4.58,0,0,0-4.3-2.58,4.16,4.16,0,0,0-3.57,1.77A8.9,8.9,0,0,0,670.74,119Z"/><rect class="cls-2" x="671.33" y="15.65" width="12.16" height="63.67"/></svg>