<svg id="Calque_1" data-name="Calque 1" xmlns="http://www.w3.org/2000/svg" viewBox="0 0 532.5 381.54"><defs><style>.cls-1{fill:#222;}.cls-2{fill:#555;}.cls-3{fill:#fcc30b;}.cls-4{fill:#c5192d;}.cls-5{fill:#4c9f38;}.cls-6{fill:#fd9d24;}.cls-7{fill:#a21942;}.cls-8{fill:#19486a;}</style></defs><title>InventuresII-square</title><path class="cls-1" d="M.76,258a7,7,0,0,1,2.17-5.1,7.46,7.46,0,0,1,5.5-2.17A8,8,0,0,1,14,252.81a7.09,7.09,0,0,1,0,10.4,8,8,0,0,1-5.61,2.07,7.45,7.45,0,0,1-5.5-2.17A7,7,0,0,1,.76,258Zm1.72,16.46H14.6V323H2.48Z"/><path class="cls-1" d="M29.34,274.47H40.86v7.78h.2a15.66,15.66,0,0,1,5.61-6.41,16.11,16.11,0,0,1,9.44-2.78,18.24,18.24,0,0,1,8.13,1.67,16,16,0,0,1,5.55,4.39A17.8,17.8,0,0,1,73,285.38a26.41,26.41,0,0,1,1,7.27V323H61.86V296.09a34.36,34.36,0,0,0-.3-4.44,12,12,0,0,0-1.31-4.19,8.72,8.72,0,0,0-2.78-3.08,8.17,8.17,0,0,0-4.7-1.21,10.37,10.37,0,0,0-5,1.16,10.73,10.73,0,0,0-3.48,3,13.19,13.19,0,0,0-2.07,4.19,16.72,16.72,0,0,0-.71,4.8V323H29.34Z"/><path class="cls-1" d="M80.85,274.47H94.08l12.73,35.35h.2l12.83-35.35h12.83L113.37,323H100.44Z"/><path class="cls-1" d="M186.19,299.32v1.62a13.17,13.17,0,0,1-.1,1.62H149.23a12,12,0,0,0,1.36,4.8,12.18,12.18,0,0,0,3.08,3.74,15.33,15.33,0,0,0,4.34,2.47,14.28,14.28,0,0,0,5.05.91,16.17,16.17,0,0,0,7.68-1.67,14.39,14.39,0,0,0,5.15-4.6l8.08,6.46q-7.17,9.7-20.81,9.7a29.61,29.61,0,0,1-10.4-1.77,24.53,24.53,0,0,1-8.23-5,22.55,22.55,0,0,1-5.45-7.93,27.33,27.33,0,0,1-2-10.66,27.83,27.83,0,0,1,2-10.66,23.73,23.73,0,0,1,13.53-13.43,27.23,27.23,0,0,1,10.15-1.87,25.59,25.59,0,0,1,9.34,1.67,20.28,20.28,0,0,1,7.42,4.95,23,23,0,0,1,4.9,8.18A33.8,33.8,0,0,1,186.19,299.32Zm-12.12-5.45a15,15,0,0,0-.66-4.44,9.92,9.92,0,0,0-5.66-6.31,12.56,12.56,0,0,0-5.1-1,13.62,13.62,0,0,0-9.24,3.28,12,12,0,0,0-4.19,8.43Z"/><path class="cls-1" d="M197.91,274.47h11.51v7.78h.2a15.66,15.66,0,0,1,5.61-6.41,16.11,16.11,0,0,1,9.44-2.78,18.24,18.24,0,0,1,8.13,1.67,16,16,0,0,1,5.55,4.39,17.8,17.8,0,0,1,3.18,6.26,26.41,26.41,0,0,1,1,7.27V323H230.43V296.09a34.36,34.36,0,0,0-.3-4.44,12,12,0,0,0-1.31-4.19,8.72,8.72,0,0,0-2.78-3.08,8.17,8.17,0,0,0-4.7-1.21,10.37,10.37,0,0,0-5,1.16,10.73,10.73,0,0,0-3.48,3,13.19,13.19,0,0,0-2.07,4.19,16.72,16.72,0,0,0-.71,4.8V323H197.91Z"/><path class="cls-1" d="M249.72,284.17v-9.7h8.48v-14h11.92v14h12.12v9.7H270.12v22.52a11,11,0,0,0,1.16,5.35q1.16,2.12,5.2,2.12a15.05,15.05,0,0,0,2.63-.25,10.54,10.54,0,0,0,2.52-.76l.4,9.49a20.06,20.06,0,0,1-3.84,1A27.09,27.09,0,0,1,274,324a19.35,19.35,0,0,1-7.88-1.36,11.93,11.93,0,0,1-4.8-3.74,13.81,13.81,0,0,1-2.42-5.45,31.64,31.64,0,0,1-.66-6.62V284.17Z"/><path class="cls-1" d="M335.26,323H323.75v-7.78h-.2a15.68,15.68,0,0,1-5.61,6.41,16.12,16.12,0,0,1-9.44,2.78,18.23,18.23,0,0,1-8.13-1.67,16,16,0,0,1-5.55-4.39,17.7,17.7,0,0,1-3.18-6.26,26.31,26.31,0,0,1-1-7.27v-30.3h12.12v26.87a34.36,34.36,0,0,0,.3,4.44,12,12,0,0,0,1.31,4.19,8.69,8.69,0,0,0,2.78,3.08,8.15,8.15,0,0,0,4.7,1.21,10.43,10.43,0,0,0,5-1.16,10.57,10.57,0,0,0,3.54-3,13.19,13.19,0,0,0,2.07-4.19,16.74,16.74,0,0,0,.71-4.8V274.47h12.12Z"/><path class="cls-1" d="M349.81,274.47h11.61v8.08h.2a17.69,17.69,0,0,1,5.66-6.87,14.11,14.11,0,0,1,8.48-2.63q.71,0,1.52,0a5.66,5.66,0,0,1,1.41.25v11.11a17.13,17.13,0,0,0-2.07-.4A14.5,14.5,0,0,0,375,284a12.85,12.85,0,0,0-6.67,1.52,12.1,12.1,0,0,0-3.94,3.64,13,13,0,0,0-1.92,4.34,16.85,16.85,0,0,0-.51,3.54v26H349.81Z"/><path class="cls-1" d="M431,299.32v1.62a13.17,13.17,0,0,1-.1,1.62H394a12,12,0,0,0,1.36,4.8,12.18,12.18,0,0,0,3.08,3.74,15.33,15.33,0,0,0,4.34,2.47,14.28,14.28,0,0,0,5.05.91,16.17,16.17,0,0,0,7.68-1.67,14.39,14.39,0,0,0,5.15-4.6l8.08,6.46q-7.17,9.7-20.81,9.7a29.61,29.61,0,0,1-10.4-1.77,24.53,24.53,0,0,1-8.23-5,22.55,22.55,0,0,1-5.45-7.93,27.33,27.33,0,0,1-2-10.66,27.83,27.83,0,0,1,2-10.66,23.73,23.73,0,0,1,13.53-13.43,27.23,27.23,0,0,1,10.15-1.87,25.59,25.59,0,0,1,9.34,1.67,20.28,20.28,0,0,1,7.42,4.95,23,23,0,0,1,4.9,8.18A33.8,33.8,0,0,1,431,299.32Zm-12.12-5.45a15,15,0,0,0-.66-4.44,9.92,9.92,0,0,0-5.66-6.31,12.56,12.56,0,0,0-5.1-1,13.62,13.62,0,0,0-9.24,3.28,12,12,0,0,0-4.19,8.43Z"/><path class="cls-1" d="M469.29,287.4a14,14,0,0,0-4.44-3.69,12.52,12.52,0,0,0-6.16-1.57,11.79,11.79,0,0,0-5.35,1.21,4.18,4.18,0,0,0-2.42,4,4.05,4.05,0,0,0,2.68,4,48.91,48.91,0,0,0,7.83,2.37,44.49,44.49,0,0,1,5.5,1.62,20.14,20.14,0,0,1,5,2.68,13.23,13.23,0,0,1,3.69,4.14,11.94,11.94,0,0,1,1.41,6,15.62,15.62,0,0,1-1.67,7.52,14.15,14.15,0,0,1-4.44,5,18.71,18.71,0,0,1-6.46,2.78,33.57,33.57,0,0,1-7.62.86,30.29,30.29,0,0,1-11-2.07,23.24,23.24,0,0,1-8.89-5.91l8-7.47a15.88,15.88,0,0,0,5.25,4.34,15,15,0,0,0,7.17,1.72,12.32,12.32,0,0,0,2.68-.3,9.09,9.09,0,0,0,2.52-1,5.23,5.23,0,0,0,1.87-1.77,5,5,0,0,0,.71-2.73,4.48,4.48,0,0,0-2.78-4.34,45,45,0,0,0-8.33-2.63,39.94,39.94,0,0,1-5.3-1.57,17.25,17.25,0,0,1-4.6-2.53,11.67,11.67,0,0,1-3.23-3.89,12.35,12.35,0,0,1-1.21-5.76,13.88,13.88,0,0,1,1.67-7,14.33,14.33,0,0,1,4.39-4.8,19.73,19.73,0,0,1,6.16-2.78,27.53,27.53,0,0,1,7.07-.91,29.78,29.78,0,0,1,10.25,1.82,17.31,17.31,0,0,1,7.93,5.55Z"/><path class="cls-2" d="M3,349.51a1.93,1.93,0,0,1,.48-1.33A1.81,1.81,0,0,1,5,347.64a1.84,1.84,0,0,1,1.44.54,1.92,1.92,0,0,1,.49,1.33,1.85,1.85,0,0,1-.49,1.32,1.87,1.87,0,0,1-1.44.53,1.84,1.84,0,0,1-1.43-.53A1.87,1.87,0,0,1,3,349.51Zm3.51,24H3.31v-19H6.55Z"/><path class="cls-2" d="M18.56,354.54l.09,2.1a7,7,0,0,1,5.63-2.45q4,0,5.42,3A7.17,7.17,0,0,1,32.16,355a7.26,7.26,0,0,1,3.58-.84q6.24,0,6.35,6.61v12.71H38.84V361a4.36,4.36,0,0,0-.93-3,4.09,4.09,0,0,0-3.12-1,4.3,4.3,0,0,0-3,1.08,4.37,4.37,0,0,0-1.39,2.9v12.59H27.15V361.08q0-4.14-4-4.14a4.34,4.34,0,0,0-4.36,2.72v13.85H15.49v-19Z"/><path class="cls-2" d="M66.77,364.24a11.36,11.36,0,0,1-2,7,6.35,6.35,0,0,1-5.36,2.65A7,7,0,0,1,54,371.67v9.13H50.75V354.54h3l.16,2.1a6.68,6.68,0,0,1,5.5-2.45,6.47,6.47,0,0,1,5.41,2.58,11.48,11.48,0,0,1,2,7.17Zm-3.24-.37a8.38,8.38,0,0,0-1.37-5.07,4.41,4.41,0,0,0-3.75-1.86A4.77,4.77,0,0,0,54,359.56v9.06a4.78,4.78,0,0,0,4.45,2.59,4.38,4.38,0,0,0,3.71-1.85A9.14,9.14,0,0,0,63.53,363.87Z"/><path class="cls-2" d="M86.37,373.51a6.77,6.77,0,0,1-.46-2,7.24,7.24,0,0,1-5.4,2.35,6.7,6.7,0,0,1-4.6-1.59,5.14,5.14,0,0,1-1.8-4,5.36,5.36,0,0,1,2.25-4.6A10.62,10.62,0,0,1,82.7,362h3.16v-1.49a3.64,3.64,0,0,0-1-2.71,4.09,4.09,0,0,0-3-1,4.73,4.73,0,0,0-2.91.88,2.58,2.58,0,0,0-1.17,2.12H74.5a4.47,4.47,0,0,1,1-2.74A6.88,6.88,0,0,1,78.24,355a9.19,9.19,0,0,1,3.79-.77,7.5,7.5,0,0,1,5.14,1.64,5.91,5.91,0,0,1,1.93,4.51v8.73a10.67,10.67,0,0,0,.67,4.15v.28ZM81,371a5.7,5.7,0,0,0,2.89-.79,4.77,4.77,0,0,0,2-2.05v-3.89H83.32q-6,0-6,3.49a3,3,0,0,0,1,2.38A3.91,3.91,0,0,0,81,371Z"/><path class="cls-2" d="M105.56,371.22a4.67,4.67,0,0,0,3-1.05,3.7,3.7,0,0,0,1.44-2.63h3.07a5.88,5.88,0,0,1-1.12,3.1,7.4,7.4,0,0,1-2.76,2.35,8,8,0,0,1-3.66.88,7.81,7.81,0,0,1-6.16-2.59,10.3,10.3,0,0,1-2.29-7.07v-.54a11.42,11.42,0,0,1,1-4.93,7.75,7.75,0,0,1,2.92-3.35,8.29,8.29,0,0,1,4.5-1.19,7.6,7.6,0,0,1,5.3,1.91,6.83,6.83,0,0,1,2.25,5H110a4.47,4.47,0,0,0-1.39-3,4.34,4.34,0,0,0-3.09-1.18,4.54,4.54,0,0,0-3.83,1.78,8.36,8.36,0,0,0-1.36,5.15v.61a8.19,8.19,0,0,0,1.35,5A4.56,4.56,0,0,0,105.56,371.22Z"/><path class="cls-2" d="M124.91,350v4.59h3.54v2.51h-3.54v11.78a2.63,2.63,0,0,0,.47,1.71,2,2,0,0,0,1.61.57,7.83,7.83,0,0,0,1.54-.21v2.61a9.45,9.45,0,0,1-2.49.35,4,4,0,0,1-3.28-1.31,5.65,5.65,0,0,1-1.1-3.73V357.05h-3.45v-2.51h3.45V350Z"/><path class="cls-2" d="M154.93,369.11l4.7-14.57h3.31l-6.8,19h-2.47l-6.87-19h3.31Z"/><path class="cls-2" d="M177.47,373.86a8.29,8.29,0,0,1-6.28-2.53,9.4,9.4,0,0,1-2.42-6.77V364a11.38,11.38,0,0,1,1.08-5,8.4,8.4,0,0,1,3-3.47,7.58,7.58,0,0,1,4.2-1.25,7.1,7.1,0,0,1,5.75,2.44q2.05,2.44,2.05,7V365H172a6.74,6.74,0,0,0,1.64,4.53,5.15,5.15,0,0,0,4,1.73,5.66,5.66,0,0,0,2.91-.7,7.32,7.32,0,0,0,2.09-1.86l2,1.54A8,8,0,0,1,177.47,373.86Zm-.4-17a4.32,4.32,0,0,0-3.3,1.43,7,7,0,0,0-1.65,4h9.5V362a6.18,6.18,0,0,0-1.33-3.83A4.07,4.07,0,0,0,177.07,356.86Z"/><path class="cls-2" d="M195.46,354.54l.11,2.38a6.91,6.91,0,0,1,5.68-2.73q6,0,6.06,6.78v12.53h-3.24V361a4.37,4.37,0,0,0-.94-3,3.76,3.76,0,0,0-2.87-1,4.68,4.68,0,0,0-2.77.84,5.71,5.71,0,0,0-1.86,2.21v13.51h-3.24v-19Z"/><path class="cls-2" d="M220.37,350v4.59h3.54v2.51h-3.54v11.78a2.63,2.63,0,0,0,.47,1.71,2,2,0,0,0,1.61.57,7.83,7.83,0,0,0,1.54-.21v2.61a9.45,9.45,0,0,1-2.49.35,4,4,0,0,1-3.28-1.31,5.65,5.65,0,0,1-1.1-3.73V357.05h-3.45v-2.51h3.45V350Z"/><path class="cls-2" d="M243.17,371.64a6.89,6.89,0,0,1-5.56,2.23A5.89,5.89,0,0,1,233,372.1a7.62,7.62,0,0,1-1.6-5.21V354.54h3.24V366.8q0,4.31,3.51,4.31,3.72,0,4.94-2.77v-13.8h3.24v19h-3.09Z"/><path class="cls-2" d="M264.19,357.45a9.7,9.7,0,0,0-1.6-.12,4.27,4.27,0,0,0-4.33,2.72v13.46H255v-19h3.16l.05,2.19a5,5,0,0,1,4.52-2.54,3.32,3.32,0,0,1,1.44.25Z"/><path class="cls-2" d="M278.48,373.86a8.29,8.29,0,0,1-6.28-2.53,9.4,9.4,0,0,1-2.42-6.77V364a11.38,11.38,0,0,1,1.08-5,8.4,8.4,0,0,1,3-3.47,7.58,7.58,0,0,1,4.2-1.25,7.1,7.1,0,0,1,5.75,2.44q2.05,2.44,2.05,7V365H273a6.74,6.74,0,0,0,1.64,4.53,5.15,5.15,0,0,0,4,1.73,5.66,5.66,0,0,0,2.91-.7,7.32,7.32,0,0,0,2.09-1.86l2,1.54A8,8,0,0,1,278.48,373.86Zm-.4-17a4.32,4.32,0,0,0-3.3,1.43,7,7,0,0,0-1.65,4h9.5V362a6.18,6.18,0,0,0-1.33-3.83A4.07,4.07,0,0,0,278.08,356.86Z"/><path class="cls-2" d="M313.66,371.22a4.67,4.67,0,0,0,3-1.05,3.7,3.7,0,0,0,1.44-2.63h3.07a5.88,5.88,0,0,1-1.12,3.1,7.4,7.4,0,0,1-2.76,2.35,8,8,0,0,1-3.66.88,7.81,7.81,0,0,1-6.16-2.59,10.3,10.3,0,0,1-2.29-7.07v-.54a11.42,11.42,0,0,1,1-4.93,7.75,7.75,0,0,1,2.92-3.35,8.29,8.29,0,0,1,4.5-1.19,7.6,7.6,0,0,1,5.3,1.91,6.83,6.83,0,0,1,2.25,5h-3.07a4.47,4.47,0,0,0-1.39-3,4.34,4.34,0,0,0-3.09-1.18,4.54,4.54,0,0,0-3.83,1.78,8.36,8.36,0,0,0-1.36,5.15v.61a8.19,8.19,0,0,0,1.35,5A4.56,4.56,0,0,0,313.66,371.22Z"/><path class="cls-2" d="M340.32,373.51a6.77,6.77,0,0,1-.46-2,7.24,7.24,0,0,1-5.4,2.35,6.7,6.7,0,0,1-4.6-1.59,5.14,5.14,0,0,1-1.8-4,5.36,5.36,0,0,1,2.25-4.6,10.62,10.62,0,0,1,6.34-1.64h3.16v-1.49a3.64,3.64,0,0,0-1-2.71,4.09,4.09,0,0,0-3-1,4.73,4.73,0,0,0-2.91.88,2.58,2.58,0,0,0-1.17,2.12h-3.26a4.47,4.47,0,0,1,1-2.74A6.88,6.88,0,0,1,332.2,355a9.19,9.19,0,0,1,3.79-.77,7.5,7.5,0,0,1,5.14,1.64,5.91,5.91,0,0,1,1.93,4.51v8.73a10.67,10.67,0,0,0,.67,4.15v.28ZM334.94,371a5.7,5.7,0,0,0,2.89-.79,4.77,4.77,0,0,0,2-2.05v-3.89h-2.54q-6,0-6,3.49a3,3,0,0,0,1,2.38A3.91,3.91,0,0,0,334.94,371Z"/><path class="cls-2" d="M367.93,364.24a11.36,11.36,0,0,1-2,7,6.35,6.35,0,0,1-5.36,2.65,7,7,0,0,1-5.43-2.19v9.13h-3.24V354.54h3l.16,2.1a6.68,6.68,0,0,1,5.5-2.45,6.47,6.47,0,0,1,5.41,2.58,11.48,11.48,0,0,1,2,7.17Zm-3.24-.37a8.38,8.38,0,0,0-1.37-5.07,4.41,4.41,0,0,0-3.75-1.86,4.77,4.77,0,0,0-4.42,2.61v9.06a4.78,4.78,0,0,0,4.45,2.59,4.38,4.38,0,0,0,3.71-1.85A9.14,9.14,0,0,0,364.69,363.87Z"/><path class="cls-2" d="M375.84,349.51a1.93,1.93,0,0,1,.48-1.33,1.81,1.81,0,0,1,1.43-.54,1.84,1.84,0,0,1,1.44.54,1.92,1.92,0,0,1,.49,1.33,1.92,1.92,0,1,1-3.84,0Zm3.51,24H376.1v-19h3.24Z"/><path class="cls-2" d="M392.7,350v4.59h3.54v2.51H392.7v11.78a2.63,2.63,0,0,0,.47,1.71,2,2,0,0,0,1.61.57,7.83,7.83,0,0,0,1.54-.21v2.61a9.45,9.45,0,0,1-2.49.35,4,4,0,0,1-3.28-1.31,5.65,5.65,0,0,1-1.1-3.73V357.05H386v-2.51h3.45V350Z"/><path class="cls-2" d="M415.51,373.51a6.77,6.77,0,0,1-.46-2,7.24,7.24,0,0,1-5.4,2.35,6.7,6.7,0,0,1-4.6-1.59,5.14,5.14,0,0,1-1.8-4,5.36,5.36,0,0,1,2.25-4.6,10.62,10.62,0,0,1,6.34-1.64H415v-1.49a3.64,3.64,0,0,0-1-2.71,4.09,4.09,0,0,0-3-1,4.73,4.73,0,0,0-2.91.88,2.58,2.58,0,0,0-1.17,2.12h-3.26a4.47,4.47,0,0,1,1-2.74,6.88,6.88,0,0,1,2.73-2.09,9.19,9.19,0,0,1,3.79-.77,7.5,7.5,0,0,1,5.14,1.64,5.91,5.91,0,0,1,1.93,4.51v8.73a10.67,10.67,0,0,0,.67,4.15v.28ZM410.13,371a5.7,5.7,0,0,0,2.89-.79,4.77,4.77,0,0,0,2-2.05v-3.89h-2.54q-6,0-6,3.49a3,3,0,0,0,1,2.38A3.91,3.91,0,0,0,410.13,371Z"/><path class="cls-2" d="M430.62,373.51h-3.24V346.59h3.24Z"/><path class="cls-2" d="M453.83,373.51V357.05h-3v-2.51h3V352.6a6.46,6.46,0,0,1,1.63-4.72,6.16,6.16,0,0,1,4.61-1.67,8.57,8.57,0,0,1,2.23.3l-.17,2.61a9.29,9.29,0,0,0-1.75-.16,3.16,3.16,0,0,0-2.44.92,3.74,3.74,0,0,0-.86,2.65v2h4v2.51h-4v16.46Z"/><path class="cls-2" d="M480.18,371.64a6.89,6.89,0,0,1-5.56,2.23A5.89,5.89,0,0,1,470,372.1a7.62,7.62,0,0,1-1.6-5.21V354.54h3.24V366.8q0,4.31,3.51,4.31,3.72,0,4.94-2.77v-13.8h3.24v19h-3.09Z"/><path class="cls-2" d="M495.1,354.54l.11,2.38a6.91,6.91,0,0,1,5.68-2.73q6,0,6.06,6.78v12.53H503.7V361a4.37,4.37,0,0,0-.94-3,3.76,3.76,0,0,0-2.87-1,4.68,4.68,0,0,0-2.77.84,5.71,5.71,0,0,0-1.86,2.21v13.51H492v-19Z"/><path class="cls-2" d="M514.82,363.87a11.11,11.11,0,0,1,2.07-7,7,7,0,0,1,10.69-.38v-9.89h3.24v26.92h-3l-.16-2a6.61,6.61,0,0,1-5.42,2.38,6.48,6.48,0,0,1-5.37-2.7,11.24,11.24,0,0,1-2.08-7Zm3.24.37a8.42,8.42,0,0,0,1.33,5,4.31,4.31,0,0,0,3.68,1.82,4.73,4.73,0,0,0,4.5-2.77v-8.71a4.77,4.77,0,0,0-4.47-2.68,4.33,4.33,0,0,0-3.72,1.84A9.26,9.26,0,0,0,518.06,364.24Z"/><rect class="cls-1" x="498.47" y="261.22" width="12.16" height="63.67"/><rect class="cls-1" x="519.47" y="261.22" width="12.16" height="63.67"/><path class="cls-3" d="M401.86,72.63a28.71,28.71,0,1,0-28.69,28.73h0A28.71,28.71,0,0,0,401.86,72.63Z"/><path class="cls-4" d="M155.27,175.28a26.41,26.41,0,1,0-26.41,26.41h0A26.41,26.41,0,0,0,155.27,175.28Z"/><path class="cls-5" d="M323.34,65.3a31.28,31.28,0,1,0-31.28,31.28h0A31.28,31.28,0,0,0,323.34,65.3Z"/><path class="cls-6" d="M428.59,17.86a17.21,17.21,0,1,0-17.21,17.21h0A17.21,17.21,0,0,0,428.59,17.86Z"/><path class="cls-7" d="M194.7,143.44A13.53,13.53,0,1,0,181.17,157h0A13.53,13.53,0,0,0,194.7,143.44Z"/><path class="cls-8" d="M288.51,143.44a35.83,35.83,0,1,0-35.83,35.83h0A35.83,35.83,0,0,0,288.51,143.44Z"/></svg>