<svg id="Calque_1" data-name="Calque 1" xmlns="http://www.w3.org/2000/svg" viewBox="0 0 712 142.51"><defs><style>.cls-1{fill:#222;}.cls-2{fill:#555;}.cls-3{fill:#1be2b0;}</style></defs><title>Inventures-2</title><path class="cls-1" d="M173.26,13.64a7,7,0,0,1,2.17-5.1,7.46,7.46,0,0,1,5.5-2.17,8,8,0,0,1,5.61,2.07,6.74,6.74,0,0,1,2.27,5.2,6.74,6.74,0,0,1-2.27,5.2,8,8,0,0,1-5.61,2.07,7.45,7.45,0,0,1-5.5-2.17A7,7,0,0,1,173.26,13.64ZM175,30.1h12.12V78.58H175Z"/><path class="cls-1" d="M201.84,30.1h11.51v7.78h.2a15.66,15.66,0,0,1,5.61-6.41,16.11,16.11,0,0,1,9.44-2.78,18.25,18.25,0,0,1,8.13,1.67,16,16,0,0,1,5.55,4.39A17.8,17.8,0,0,1,245.47,41a26.41,26.41,0,0,1,1,7.27v30.3H234.36V51.71a34.36,34.36,0,0,0-.3-4.44,12,12,0,0,0-1.31-4.19A8.72,8.72,0,0,0,230,40a8.17,8.17,0,0,0-4.7-1.21,10.37,10.37,0,0,0-5,1.16,10.73,10.73,0,0,0-3.48,3,13.19,13.19,0,0,0-2.07,4.19,16.72,16.72,0,0,0-.71,4.8V78.58H201.84Z"/><path class="cls-1" d="M253.35,30.1h13.23L279.3,65.45h.2L292.33,30.1h12.83L285.87,78.58H272.94Z"/><path class="cls-1" d="M358.69,54.95v1.62a13.17,13.17,0,0,1-.1,1.62H321.72a12,12,0,0,0,1.36,4.8,12.18,12.18,0,0,0,3.08,3.74,15.33,15.33,0,0,0,4.34,2.47,14.28,14.28,0,0,0,5.05.91,16.17,16.17,0,0,0,7.68-1.67,14.39,14.39,0,0,0,5.15-4.6l8.08,6.46Q349.29,80,335.66,80a29.61,29.61,0,0,1-10.4-1.77,24.53,24.53,0,0,1-8.23-5,22.55,22.55,0,0,1-5.45-7.93,27.33,27.33,0,0,1-2-10.66,27.83,27.83,0,0,1,2-10.66,23.73,23.73,0,0,1,13.53-13.43,27.23,27.23,0,0,1,10.15-1.87,25.6,25.6,0,0,1,9.34,1.67A20.28,20.28,0,0,1,352,35.3a23,23,0,0,1,4.9,8.18A33.8,33.8,0,0,1,358.69,54.95Zm-12.12-5.45a15,15,0,0,0-.66-4.44,9.92,9.92,0,0,0-5.66-6.31,12.56,12.56,0,0,0-5.1-1,13.62,13.62,0,0,0-9.24,3.28,12,12,0,0,0-4.19,8.43Z"/><path class="cls-1" d="M370.4,30.1h11.51v7.78h.2a15.66,15.66,0,0,1,5.61-6.41,16.11,16.11,0,0,1,9.44-2.78,18.25,18.25,0,0,1,8.13,1.67,16,16,0,0,1,5.55,4.39A17.8,17.8,0,0,1,414,41a26.41,26.41,0,0,1,1,7.27v30.3H402.93V51.71a34.36,34.36,0,0,0-.3-4.44,12,12,0,0,0-1.31-4.19A8.72,8.72,0,0,0,398.53,40a8.17,8.17,0,0,0-4.7-1.21,10.37,10.37,0,0,0-5,1.16,10.73,10.73,0,0,0-3.48,3,13.19,13.19,0,0,0-2.07,4.19,16.72,16.72,0,0,0-.71,4.8V78.58H370.4Z"/><path class="cls-1" d="M422.21,39.8V30.1h8.48v-14h11.92v14h12.12v9.7H442.62V62.32a11,11,0,0,0,1.16,5.35q1.16,2.12,5.2,2.12a15.05,15.05,0,0,0,2.63-.25,10.54,10.54,0,0,0,2.52-.76l.4,9.49a20.06,20.06,0,0,1-3.84,1,27.09,27.09,0,0,1-4.24.35,19.35,19.35,0,0,1-7.88-1.36,11.93,11.93,0,0,1-4.8-3.74A13.81,13.81,0,0,1,431.36,69a31.64,31.64,0,0,1-.66-6.62V39.8Z"/><path class="cls-1" d="M507.76,78.58H496.25V70.8H496a15.68,15.68,0,0,1-5.61,6.41A16.12,16.12,0,0,1,481,80a18.23,18.23,0,0,1-8.13-1.67,16,16,0,0,1-5.55-4.39,17.7,17.7,0,0,1-3.18-6.26,26.31,26.31,0,0,1-1-7.27V30.1h12.12V57a34.36,34.36,0,0,0,.3,4.44,12,12,0,0,0,1.31,4.19,8.69,8.69,0,0,0,2.78,3.08,8.15,8.15,0,0,0,4.7,1.21,10.43,10.43,0,0,0,5-1.16,10.57,10.57,0,0,0,3.54-3,13.19,13.19,0,0,0,2.07-4.19,16.74,16.74,0,0,0,.71-4.8V30.1h12.12Z"/><path class="cls-1" d="M522.3,30.1h11.61v8.08h.2a17.69,17.69,0,0,1,5.66-6.87,14.1,14.1,0,0,1,8.48-2.63q.71,0,1.52,0a5.66,5.66,0,0,1,1.41.25V40.1a17.13,17.13,0,0,0-2.07-.4,14.5,14.5,0,0,0-1.67-.1,12.85,12.85,0,0,0-6.67,1.52,12.1,12.1,0,0,0-3.94,3.64,13,13,0,0,0-1.92,4.34,16.85,16.85,0,0,0-.51,3.54v26H522.3Z"/><path class="cls-1" d="M603.51,54.95v1.62a13.17,13.17,0,0,1-.1,1.62H566.54a12,12,0,0,0,1.36,4.8A12.18,12.18,0,0,0,571,66.71a15.33,15.33,0,0,0,4.34,2.47,14.28,14.28,0,0,0,5.05.91,16.17,16.17,0,0,0,7.68-1.67,14.39,14.39,0,0,0,5.15-4.6l8.08,6.46Q594.11,80,580.48,80a29.61,29.61,0,0,1-10.4-1.77,24.53,24.53,0,0,1-8.23-5,22.55,22.55,0,0,1-5.45-7.93,27.33,27.33,0,0,1-2-10.66,27.83,27.83,0,0,1,2-10.66,23.73,23.73,0,0,1,13.53-13.43,27.23,27.23,0,0,1,10.15-1.87,25.6,25.6,0,0,1,9.34,1.67,20.28,20.28,0,0,1,7.42,4.95,23,23,0,0,1,4.9,8.18A33.8,33.8,0,0,1,603.51,54.95Zm-12.12-5.45a15,15,0,0,0-.66-4.44,9.92,9.92,0,0,0-5.66-6.31,12.56,12.56,0,0,0-5.1-1,13.62,13.62,0,0,0-9.24,3.28,12,12,0,0,0-4.19,8.43Z"/><path class="cls-1" d="M641.79,43a14,14,0,0,0-4.44-3.69,12.52,12.52,0,0,0-6.16-1.57A11.79,11.79,0,0,0,625.83,39a4.18,4.18,0,0,0-2.42,4,4.05,4.05,0,0,0,2.68,4,48.91,48.91,0,0,0,7.83,2.37,44.49,44.49,0,0,1,5.5,1.62,20.14,20.14,0,0,1,5,2.68,13.23,13.23,0,0,1,3.69,4.14,11.94,11.94,0,0,1,1.41,6,15.62,15.62,0,0,1-1.67,7.52,14.15,14.15,0,0,1-4.44,5A18.71,18.71,0,0,1,637,79.14a33.57,33.57,0,0,1-7.62.86,30.29,30.29,0,0,1-11-2.07A23.24,23.24,0,0,1,609.47,72l8-7.47a15.88,15.88,0,0,0,5.25,4.34,15,15,0,0,0,7.17,1.72,12.32,12.32,0,0,0,2.68-.3,9.09,9.09,0,0,0,2.52-1,5.23,5.23,0,0,0,1.87-1.77,5,5,0,0,0,.71-2.73,4.48,4.48,0,0,0-2.78-4.34,45,45,0,0,0-8.33-2.63,39.94,39.94,0,0,1-5.3-1.57,17.25,17.25,0,0,1-4.6-2.53,11.67,11.67,0,0,1-3.23-3.89,12.35,12.35,0,0,1-1.21-5.76,13.88,13.88,0,0,1,1.67-7,14.33,14.33,0,0,1,4.39-4.8,19.74,19.74,0,0,1,6.16-2.78,27.55,27.55,0,0,1,7.07-.91,29.79,29.79,0,0,1,10.25,1.82,17.32,17.32,0,0,1,7.93,5.55Z"/><path class="cls-2" d="M175.55,104.14a1.93,1.93,0,0,1,.48-1.33,1.81,1.81,0,0,1,1.43-.54,1.84,1.84,0,0,1,1.44.54,1.92,1.92,0,0,1,.49,1.33,1.92,1.92,0,1,1-3.84,0Zm3.51,24h-3.24v-19h3.24Z"/><path class="cls-2" d="M191.06,109.17l.09,2.1a7,7,0,0,1,5.63-2.45q4,0,5.42,3a7.17,7.17,0,0,1,2.46-2.21,7.26,7.26,0,0,1,3.58-.84q6.24,0,6.35,6.61v12.71h-3.24V115.62a4.36,4.36,0,0,0-.93-3,4.09,4.09,0,0,0-3.12-1,4.3,4.3,0,0,0-3,1.08,4.37,4.37,0,0,0-1.39,2.9v12.59h-3.26V115.71q0-4.14-4-4.14a4.34,4.34,0,0,0-4.36,2.72v13.85H188v-19Z"/><path class="cls-2" d="M239.27,118.86a11.36,11.36,0,0,1-2,7,6.35,6.35,0,0,1-5.36,2.65,7,7,0,0,1-5.43-2.19v9.13h-3.24V109.17h3l.16,2.1a6.68,6.68,0,0,1,5.5-2.45,6.47,6.47,0,0,1,5.41,2.58,11.48,11.48,0,0,1,2,7.17ZM236,118.5a8.38,8.38,0,0,0-1.37-5.07,4.41,4.41,0,0,0-3.75-1.86,4.77,4.77,0,0,0-4.42,2.61v9.06a4.78,4.78,0,0,0,4.45,2.59,4.38,4.38,0,0,0,3.71-1.85A9.14,9.14,0,0,0,236,118.5Z"/><path class="cls-2" d="M258.87,128.14a6.77,6.77,0,0,1-.46-2,7.24,7.24,0,0,1-5.4,2.35,6.7,6.7,0,0,1-4.6-1.59,5.14,5.14,0,0,1-1.8-4,5.36,5.36,0,0,1,2.25-4.6,10.62,10.62,0,0,1,6.34-1.64h3.16v-1.49a3.64,3.64,0,0,0-1-2.71,4.09,4.09,0,0,0-3-1,4.73,4.73,0,0,0-2.91.88,2.58,2.58,0,0,0-1.17,2.12H247a4.47,4.47,0,0,1,1-2.74,6.88,6.88,0,0,1,2.73-2.09,9.19,9.19,0,0,1,3.79-.77,7.5,7.5,0,0,1,5.14,1.64A5.91,5.91,0,0,1,261.6,115v8.73a10.67,10.67,0,0,0,.67,4.15v.28Zm-5.38-2.47a5.7,5.7,0,0,0,2.89-.79,4.77,4.77,0,0,0,2-2.05v-3.89h-2.54q-6,0-6,3.49a3,3,0,0,0,1,2.38A3.91,3.91,0,0,0,253.48,125.67Z"/><path class="cls-2" d="M278.06,125.84a4.67,4.67,0,0,0,3-1.05,3.7,3.7,0,0,0,1.44-2.63h3.07a5.88,5.88,0,0,1-1.12,3.1,7.4,7.4,0,0,1-2.76,2.35,8,8,0,0,1-3.66.88,7.81,7.81,0,0,1-6.16-2.59,10.3,10.3,0,0,1-2.29-7.07v-.54a11.42,11.42,0,0,1,1-4.93,7.75,7.75,0,0,1,2.92-3.35,8.29,8.29,0,0,1,4.5-1.19,7.6,7.6,0,0,1,5.3,1.91,6.83,6.83,0,0,1,2.25,5h-3.07a4.47,4.47,0,0,0-1.39-3,4.34,4.34,0,0,0-3.09-1.18,4.54,4.54,0,0,0-3.83,1.78,8.36,8.36,0,0,0-1.36,5.15V119a8.19,8.19,0,0,0,1.35,5A4.56,4.56,0,0,0,278.06,125.84Z"/><path class="cls-2" d="M297.41,104.58v4.59H301v2.51h-3.54v11.78a2.63,2.63,0,0,0,.47,1.71,2,2,0,0,0,1.61.57,7.83,7.83,0,0,0,1.54-.21v2.61a9.45,9.45,0,0,1-2.49.35,4,4,0,0,1-3.28-1.31,5.65,5.65,0,0,1-1.1-3.73V111.68h-3.45v-2.51h3.45v-4.59Z"/><path class="cls-2" d="M327.43,123.74l4.7-14.57h3.31l-6.8,19h-2.47l-6.87-19h3.31Z"/><path class="cls-2" d="M350,128.49a8.29,8.29,0,0,1-6.28-2.53,9.4,9.4,0,0,1-2.42-6.77v-.6a11.38,11.38,0,0,1,1.08-5,8.4,8.4,0,0,1,3-3.47,7.58,7.58,0,0,1,4.2-1.25,7.1,7.1,0,0,1,5.75,2.44q2.05,2.44,2.05,7v1.35H344.52a6.74,6.74,0,0,0,1.64,4.53,5.15,5.15,0,0,0,4,1.73,5.66,5.66,0,0,0,2.91-.7,7.32,7.32,0,0,0,2.09-1.86l2,1.54A8,8,0,0,1,350,128.49Zm-.4-17a4.32,4.32,0,0,0-3.3,1.43,7,7,0,0,0-1.65,4h9.5v-.25a6.18,6.18,0,0,0-1.33-3.83A4.07,4.07,0,0,0,349.57,111.49Z"/><path class="cls-2" d="M368,109.17l.11,2.38a6.91,6.91,0,0,1,5.68-2.73q6,0,6.06,6.78v12.53h-3.24V115.59a4.37,4.37,0,0,0-.94-3,3.76,3.76,0,0,0-2.87-1,4.68,4.68,0,0,0-2.77.84,5.71,5.71,0,0,0-1.86,2.21v13.51h-3.24v-19Z"/><path class="cls-2" d="M392.87,104.58v4.59h3.54v2.51h-3.54v11.78a2.63,2.63,0,0,0,.47,1.71,2,2,0,0,0,1.61.57,7.83,7.83,0,0,0,1.54-.21v2.61a9.45,9.45,0,0,1-2.49.35,4,4,0,0,1-3.28-1.31,5.65,5.65,0,0,1-1.1-3.73V111.68h-3.45v-2.51h3.45v-4.59Z"/><path class="cls-2" d="M415.67,126.26a6.89,6.89,0,0,1-5.56,2.23,5.89,5.89,0,0,1-4.62-1.76,7.62,7.62,0,0,1-1.6-5.21V109.17h3.24v12.25q0,4.31,3.51,4.31,3.72,0,4.94-2.77v-13.8h3.24v19h-3.09Z"/><path class="cls-2" d="M436.69,112.08a9.7,9.7,0,0,0-1.6-.12,4.27,4.27,0,0,0-4.33,2.72v13.46h-3.24v-19h3.16l.05,2.19a5,5,0,0,1,4.52-2.54,3.32,3.32,0,0,1,1.44.25Z"/><path class="cls-2" d="M451,128.49A8.29,8.29,0,0,1,444.7,126a9.4,9.4,0,0,1-2.42-6.77v-.6a11.38,11.38,0,0,1,1.08-5,8.4,8.4,0,0,1,3-3.47,7.58,7.58,0,0,1,4.2-1.25,7.1,7.1,0,0,1,5.75,2.44q2.05,2.44,2.05,7v1.35H445.53a6.74,6.74,0,0,0,1.64,4.53,5.15,5.15,0,0,0,4,1.73,5.66,5.66,0,0,0,2.91-.7,7.32,7.32,0,0,0,2.09-1.86l2,1.54A8,8,0,0,1,451,128.49Zm-.4-17a4.32,4.32,0,0,0-3.3,1.43,7,7,0,0,0-1.65,4h9.5v-.25a6.18,6.18,0,0,0-1.33-3.83A4.07,4.07,0,0,0,450.58,111.49Z"/><path class="cls-2" d="M486.16,125.84a4.67,4.67,0,0,0,3-1.05,3.7,3.7,0,0,0,1.44-2.63h3.07a5.88,5.88,0,0,1-1.12,3.1,7.4,7.4,0,0,1-2.76,2.35,8,8,0,0,1-3.66.88A7.81,7.81,0,0,1,480,125.9a10.3,10.3,0,0,1-2.29-7.07v-.54a11.42,11.42,0,0,1,1-4.93,7.75,7.75,0,0,1,2.92-3.35,8.29,8.29,0,0,1,4.5-1.19,7.6,7.6,0,0,1,5.3,1.91,6.83,6.83,0,0,1,2.25,5h-3.07a4.47,4.47,0,0,0-1.39-3,4.34,4.34,0,0,0-3.09-1.18,4.54,4.54,0,0,0-3.83,1.78,8.36,8.36,0,0,0-1.36,5.15V119a8.19,8.19,0,0,0,1.35,5A4.56,4.56,0,0,0,486.16,125.84Z"/><path class="cls-2" d="M512.82,128.14a6.77,6.77,0,0,1-.46-2,7.24,7.24,0,0,1-5.4,2.35,6.7,6.7,0,0,1-4.6-1.59,5.14,5.14,0,0,1-1.8-4,5.36,5.36,0,0,1,2.25-4.6,10.62,10.62,0,0,1,6.34-1.64h3.16v-1.49a3.64,3.64,0,0,0-1-2.71,4.09,4.09,0,0,0-3-1,4.73,4.73,0,0,0-2.91.88,2.58,2.58,0,0,0-1.17,2.12H501a4.47,4.47,0,0,1,1-2.74,6.88,6.88,0,0,1,2.73-2.09,9.19,9.19,0,0,1,3.79-.77,7.5,7.5,0,0,1,5.14,1.64,5.91,5.91,0,0,1,1.93,4.51v8.73a10.67,10.67,0,0,0,.67,4.15v.28Zm-5.38-2.47a5.7,5.7,0,0,0,2.89-.79,4.77,4.77,0,0,0,2-2.05v-3.89h-2.54q-6,0-6,3.49a3,3,0,0,0,1,2.38A3.91,3.91,0,0,0,507.44,125.67Z"/><path class="cls-2" d="M540.43,118.86a11.36,11.36,0,0,1-2,7,6.35,6.35,0,0,1-5.36,2.65,7,7,0,0,1-5.43-2.19v9.13h-3.24V109.17h3l.16,2.1a6.68,6.68,0,0,1,5.5-2.45,6.47,6.47,0,0,1,5.41,2.58,11.48,11.48,0,0,1,2,7.17Zm-3.24-.37a8.38,8.38,0,0,0-1.37-5.07,4.41,4.41,0,0,0-3.75-1.86,4.77,4.77,0,0,0-4.42,2.61v9.06a4.78,4.78,0,0,0,4.45,2.59,4.38,4.38,0,0,0,3.71-1.85A9.14,9.14,0,0,0,537.19,118.5Z"/><path class="cls-2" d="M548.34,104.14a1.93,1.93,0,0,1,.48-1.33,1.81,1.81,0,0,1,1.43-.54,1.84,1.84,0,0,1,1.44.54,1.92,1.92,0,0,1,.49,1.33,1.92,1.92,0,1,1-3.84,0Zm3.51,24H548.6v-19h3.24Z"/><path class="cls-2" d="M565.2,104.58v4.59h3.54v2.51H565.2v11.78a2.63,2.63,0,0,0,.47,1.71,2,2,0,0,0,1.61.57,7.83,7.83,0,0,0,1.54-.21v2.61a9.45,9.45,0,0,1-2.49.35,4,4,0,0,1-3.28-1.31,5.65,5.65,0,0,1-1.1-3.73V111.68h-3.45v-2.51H562v-4.59Z"/><path class="cls-2" d="M588,128.14a6.77,6.77,0,0,1-.46-2,7.24,7.24,0,0,1-5.4,2.35,6.7,6.7,0,0,1-4.6-1.59,5.14,5.14,0,0,1-1.8-4,5.36,5.36,0,0,1,2.25-4.6,10.62,10.62,0,0,1,6.34-1.64h3.16v-1.49a3.64,3.64,0,0,0-1-2.71,4.09,4.09,0,0,0-3-1,4.73,4.73,0,0,0-2.91.88,2.58,2.58,0,0,0-1.17,2.12h-3.26a4.47,4.47,0,0,1,1-2.74,6.88,6.88,0,0,1,2.73-2.09,9.19,9.19,0,0,1,3.79-.77,7.5,7.5,0,0,1,5.14,1.64,5.91,5.91,0,0,1,1.93,4.51v8.73a10.67,10.67,0,0,0,.67,4.15v.28Zm-5.38-2.47a5.7,5.7,0,0,0,2.89-.79,4.77,4.77,0,0,0,2-2.05v-3.89H585q-6,0-6,3.49a3,3,0,0,0,1,2.38A3.91,3.91,0,0,0,582.63,125.67Z"/><path class="cls-2" d="M603.12,128.14h-3.24V101.21h3.24Z"/><path class="cls-2" d="M626.33,128.14V111.68h-3v-2.51h3v-1.95a6.46,6.46,0,0,1,1.63-4.72,6.16,6.16,0,0,1,4.61-1.67,8.57,8.57,0,0,1,2.23.3l-.17,2.61a9.29,9.29,0,0,0-1.75-.16,3.16,3.16,0,0,0-2.44.92,3.74,3.74,0,0,0-.86,2.65v2h4v2.51h-4v16.46Z"/><path class="cls-2" d="M652.68,126.26a6.89,6.89,0,0,1-5.56,2.23,5.89,5.89,0,0,1-4.62-1.76,7.62,7.62,0,0,1-1.6-5.21V109.17h3.24v12.25q0,4.31,3.51,4.31,3.72,0,4.94-2.77v-13.8h3.24v19h-3.09Z"/><path class="cls-2" d="M667.6,109.17l.11,2.38a6.91,6.91,0,0,1,5.68-2.73q6,0,6.06,6.78v12.53H676.2V115.59a4.37,4.37,0,0,0-.94-3,3.76,3.76,0,0,0-2.87-1,4.68,4.68,0,0,0-2.77.84,5.71,5.71,0,0,0-1.86,2.21v13.51h-3.24v-19Z"/><path class="cls-2" d="M687.32,118.5a11.11,11.11,0,0,1,2.07-7,7,7,0,0,1,10.69-.38v-9.89h3.24v26.92h-3l-.16-2a6.61,6.61,0,0,1-5.42,2.38,6.48,6.48,0,0,1-5.37-2.7,11.24,11.24,0,0,1-2.08-7Zm3.24.37a8.42,8.42,0,0,0,1.33,5,4.31,4.31,0,0,0,3.68,1.82,4.73,4.73,0,0,0,4.5-2.77v-8.71a4.77,4.77,0,0,0-4.47-2.68,4.33,4.33,0,0,0-3.72,1.84A9.26,9.26,0,0,0,690.56,118.86Z"/><path class="cls-3" d="M36.89,80.55c9,3.3,17.2,9.23,23.46,14.59,1.45-1.51,3.44-3.49,5.85-5.73C59.34,83.47,50,76.74,39.69,72.93A87.28,87.28,0,0,0,8.16,67.22c0,.07,0,.15,0,.22a61.71,61.71,0,0,0,.53,7.92A79.42,79.42,0,0,1,36.89,80.55Z"/><path class="cls-3" d="M113.17,109.77l.65-.23A61.44,61.44,0,0,0,122,98.79a85.53,85.53,0,0,0-11.62,3.36c-16.3,6-31.41,20.89-36.58,26.35a61,61,0,0,0,14.77-2.9C95.13,119.83,104.07,113.12,113.17,109.77Z"/><path class="cls-3" d="M72.61,121c.17-.19,17.34-19.51,35.09-26A77.54,77.54,0,0,1,126,90.66a60.73,60.73,0,0,0,2.76-8.44,86.39,86.39,0,0,0-23.9,5.11c-19.66,7.24-37.62,27.43-38.45,28.37A110.14,110.14,0,0,1,55,127a61.12,61.12,0,0,0,10.39,1.56A103,103,0,0,0,72.61,121Z"/><path class="cls-3" d="M67.15,106.18c.17-.19,17.33-19.5,35.09-26a78.78,78.78,0,0,1,27.84-4.77,61.71,61.71,0,0,0,.53-7.92c0-.08,0-.15,0-.23a86.81,86.81,0,0,0-31.17,5.3C79.77,79.76,61.81,100,61,100.89a112.93,112.93,0,0,1-22.36,19.49,60.94,60.94,0,0,0,8.46,4.09A119,119,0,0,0,67.15,106.18Z"/><path class="cls-3" d="M49.92,106c2.52-2.34,4.5-4.37,5.83-5.81a82.78,82.78,0,0,0-21.52-12.4A91,91,0,0,0,10,82.27a60.74,60.74,0,0,0,2.78,8.48,84.13,84.13,0,0,1,18.67,4.62A73.06,73.06,0,0,1,49.92,106Z"/><path class="cls-3" d="M37.43,115.92c2.49-1.67,4.83-3.44,7-5.19a75.59,75.59,0,0,0-15.63-8.17A97,97,0,0,0,16.92,99,61.45,61.45,0,0,0,25.36,110l.61.22A63.3,63.3,0,0,1,37.43,115.92Z"/><path class="cls-3" d="M101.14,18.51c-2.43,1.67-4.74,3.44-6.87,5.19a73.69,73.69,0,0,0,15.92,8.54,85.86,85.86,0,0,0,11.47,3.33,61.47,61.47,0,0,0-8.49-10.89l-.17-.06A61.73,61.73,0,0,1,101.14,18.51Z"/><path class="cls-3" d="M39.53,61.46c21-7.75,37.74-27.54,38.38-28.29a129.69,129.69,0,0,1,21.72-19,60.92,60.92,0,0,0-8.44-4A137.13,137.13,0,0,0,71.75,27.87c-.16.19-16.06,19-35,26A79.49,79.49,0,0,1,8.75,59a61.68,61.68,0,0,0-.58,8.15H9.1A88,88,0,0,0,39.53,61.46Z"/><path class="cls-3" d="M72.45,18.36A129.43,129.43,0,0,1,83.28,7.82a61.15,61.15,0,0,0-10.42-1.5C69,10,66.58,12.73,66.29,13.06s-16,19-35,26A84.34,84.34,0,0,1,13,43.59,60.76,60.76,0,0,0,10.1,52.1a91.07,91.07,0,0,0,24-5.46C55.11,38.9,71.82,19.11,72.45,18.36Z"/><path class="cls-3" d="M64.39,6.44a60.91,60.91,0,0,0-15.1,3.17C43.13,14.9,35,20.73,26.18,24.06a61.49,61.49,0,0,0-8.87,11.18,97.71,97.71,0,0,0,11.31-3.41C45,25.78,58.84,12.38,64.39,6.44Z"/><path class="cls-3" d="M88.81,28.47c-2.51,2.32-4.54,4.36-5.86,5.74,6.33,5,13.91,10,21.79,12.86a86.47,86.47,0,0,0,24,5.1,60.75,60.75,0,0,0-2.85-8.44,77.42,77.42,0,0,1-18.3-4.29C100.94,37,94.41,32.8,88.81,28.47Z"/><path class="cls-3" d="M102.08,54.26c-8.68-3.19-17.22-9.46-23.7-15C76.94,40.76,75,42.76,72.6,45c7.09,6.14,16.65,13.2,26.68,16.9a87,87,0,0,0,30,5.32l1.33,0a61.69,61.69,0,0,0-.58-8.13A78.71,78.71,0,0,1,102.08,54.26Z"/><rect class="cls-1" x="670.97" y="15.85" width="12.16" height="63.67"/><rect class="cls-1" x="691.97" y="15.85" width="12.16" height="63.67"/></svg>