<svg id="Calque_1" data-name="Calque 1" xmlns="http://www.w3.org/2000/svg" viewBox="0 0 660 142.51"><defs><style>.cls-1{fill:#1be2b0;}.cls-2{fill:#3ebdf7;}.cls-3{fill:#ff4d40;}.cls-4{fill:#ffde33;}.cls-5{fill:#222;}.cls-6{fill:#555;}</style></defs><title>Inventures</title><path class="cls-1" d="M36.95,80c9,3.3,17.2,9.23,23.46,14.59,1.45-1.51,3.44-3.49,5.85-5.73C59.39,82.9,50.1,76.18,39.75,72.37A87.28,87.28,0,0,0,8.22,66.66c0,.07,0,.15,0,.22a61.71,61.71,0,0,0,.53,7.92A79.42,79.42,0,0,1,36.95,80Z"/><path class="cls-2" d="M113.23,109.21l.65-.23A61.44,61.44,0,0,0,122,98.23a85.53,85.53,0,0,0-11.62,3.36c-16.3,6-31.41,20.89-36.58,26.35A61,61,0,0,0,88.6,125C95.19,119.27,104.13,112.56,113.23,109.21Z"/><path class="cls-2" d="M72.67,120.44c.17-.19,17.34-19.51,35.09-26A77.54,77.54,0,0,1,126.1,90.1a60.73,60.73,0,0,0,2.76-8.44A86.39,86.39,0,0,0,105,86.77C85.3,94,67.34,114.21,66.51,115.14A110.14,110.14,0,0,1,55.11,126.4,61.12,61.12,0,0,0,65.49,128,103,103,0,0,0,72.67,120.44Z"/><path class="cls-2" d="M67.21,105.62c.17-.19,17.33-19.5,35.09-26a78.78,78.78,0,0,1,27.84-4.77,61.71,61.71,0,0,0,.53-7.92c0-.08,0-.15,0-.23A86.81,86.81,0,0,0,99.5,72C79.83,79.2,61.87,99.39,61.05,100.33a112.93,112.93,0,0,1-22.36,19.49,60.94,60.94,0,0,0,8.46,4.09A119,119,0,0,0,67.21,105.62Z"/><path class="cls-1" d="M50,105.39c2.52-2.34,4.5-4.37,5.83-5.81A82.78,82.78,0,0,0,34.3,87.18,91,91,0,0,0,10,81.71a60.74,60.74,0,0,0,2.78,8.48,84.13,84.13,0,0,1,18.67,4.62A73.06,73.06,0,0,1,50,105.39Z"/><path class="cls-1" d="M37.49,115.36c2.49-1.67,4.83-3.44,7-5.19A75.59,75.59,0,0,0,28.84,102,97,97,0,0,0,17,98.47a61.45,61.45,0,0,0,8.43,10.95l.61.22A63.3,63.3,0,0,1,37.49,115.36Z"/><path class="cls-3" d="M101.2,17.95c-2.43,1.67-4.74,3.44-6.87,5.19a73.69,73.69,0,0,0,15.92,8.54A85.86,85.86,0,0,0,121.72,35a61.47,61.47,0,0,0-8.49-10.89l-.17-.06A61.73,61.73,0,0,1,101.2,17.95Z"/><path class="cls-4" d="M39.59,60.9c21-7.75,37.74-27.54,38.38-28.29a129.69,129.69,0,0,1,21.72-19,60.92,60.92,0,0,0-8.44-4A137.13,137.13,0,0,0,71.81,27.31c-.16.19-16.06,19-35,26a79.49,79.49,0,0,1-28,5.19,61.68,61.68,0,0,0-.58,8.15h.94A88,88,0,0,0,39.59,60.9Z"/><path class="cls-4" d="M72.51,17.79A129.43,129.43,0,0,1,83.34,7.26a61.15,61.15,0,0,0-10.42-1.5c-3.86,3.69-6.27,6.4-6.56,6.73s-16,19-35,26A84.34,84.34,0,0,1,13,43a60.76,60.76,0,0,0-2.88,8.51,91.07,91.07,0,0,0,24-5.46C55.17,38.34,71.88,18.55,72.51,17.79Z"/><path class="cls-4" d="M64.45,5.88A60.91,60.91,0,0,0,49.35,9c-6.17,5.29-14.3,11.12-23.11,14.45a61.49,61.49,0,0,0-8.87,11.18,97.71,97.71,0,0,0,11.31-3.41C45.1,25.21,58.9,11.81,64.45,5.88Z"/><path class="cls-3" d="M88.87,27.91c-2.51,2.32-4.54,4.36-5.86,5.74,6.33,5,13.91,10,21.79,12.86a86.47,86.47,0,0,0,24,5.1,60.75,60.75,0,0,0-2.85-8.44,77.42,77.42,0,0,1-18.3-4.29C101,36.44,94.47,32.23,88.87,27.91Z"/><path class="cls-3" d="M102.14,53.69c-8.68-3.19-17.22-9.46-23.7-15C77,40.2,75,42.19,72.66,44.42c7.09,6.14,16.65,13.2,26.68,16.9a87,87,0,0,0,30,5.32l1.33,0a61.69,61.69,0,0,0-.58-8.13A78.71,78.71,0,0,1,102.14,53.69Z"/><path class="cls-5" d="M173.42,13a7,7,0,0,1,2.17-5.1,7.46,7.46,0,0,1,5.5-2.17,8,8,0,0,1,5.61,2.07A6.74,6.74,0,0,1,189,13a6.74,6.74,0,0,1-2.27,5.2,8,8,0,0,1-5.61,2.07,7.45,7.45,0,0,1-5.5-2.17A7,7,0,0,1,173.42,13Zm1.72,16.46h12.12V78H175.14Z"/><path class="cls-5" d="M202,29.48h11.51v7.78h.2a15.66,15.66,0,0,1,5.61-6.41,16.11,16.11,0,0,1,9.44-2.78,18.24,18.24,0,0,1,8.13,1.67,16,16,0,0,1,5.55,4.39,17.8,17.8,0,0,1,3.18,6.26,26.41,26.41,0,0,1,1,7.27V78H234.53V51.09a34.36,34.36,0,0,0-.3-4.44,12,12,0,0,0-1.31-4.19,8.72,8.72,0,0,0-2.78-3.08,8.17,8.17,0,0,0-4.7-1.21,10.37,10.37,0,0,0-5,1.16,10.73,10.73,0,0,0-3.48,3,13.19,13.19,0,0,0-2.07,4.19,16.72,16.72,0,0,0-.71,4.8V78H202Z"/><path class="cls-5" d="M253.51,29.48h13.23l12.73,35.35h.2L292.5,29.48h12.83L286,78H273.11Z"/><path class="cls-5" d="M358.86,54.32v1.62a13.17,13.17,0,0,1-.1,1.62H321.89a12,12,0,0,0,1.36,4.8,12.18,12.18,0,0,0,3.08,3.74,15.33,15.33,0,0,0,4.34,2.47,14.28,14.28,0,0,0,5.05.91,16.17,16.17,0,0,0,7.68-1.67,14.39,14.39,0,0,0,5.15-4.6l8.08,6.46q-7.17,9.7-20.81,9.7a29.61,29.61,0,0,1-10.4-1.77,24.53,24.53,0,0,1-8.23-5,22.55,22.55,0,0,1-5.45-7.93,27.33,27.33,0,0,1-2-10.66,27.83,27.83,0,0,1,2-10.66,23.73,23.73,0,0,1,13.53-13.43,27.22,27.22,0,0,1,10.15-1.87,25.59,25.59,0,0,1,9.34,1.67,20.28,20.28,0,0,1,7.42,4.95,23,23,0,0,1,4.9,8.18A33.8,33.8,0,0,1,358.86,54.32Zm-12.12-5.45a15,15,0,0,0-.66-4.44,9.92,9.92,0,0,0-5.66-6.31,12.56,12.56,0,0,0-5.1-1,13.62,13.62,0,0,0-9.24,3.28,12,12,0,0,0-4.19,8.43Z"/><path class="cls-5" d="M370.57,29.48h11.51v7.78h.2a15.66,15.66,0,0,1,5.61-6.41,16.11,16.11,0,0,1,9.44-2.78,18.24,18.24,0,0,1,8.13,1.67A16,16,0,0,1,411,34.12a17.8,17.8,0,0,1,3.18,6.26,26.41,26.41,0,0,1,1,7.27V78H403.09V51.09a34.36,34.36,0,0,0-.3-4.44,12,12,0,0,0-1.31-4.19,8.72,8.72,0,0,0-2.78-3.08,8.17,8.17,0,0,0-4.7-1.21,10.37,10.37,0,0,0-5,1.16,10.73,10.73,0,0,0-3.48,3,13.19,13.19,0,0,0-2.07,4.19,16.72,16.72,0,0,0-.71,4.8V78H370.57Z"/><path class="cls-5" d="M422.38,39.17v-9.7h8.48v-14h11.92v14H454.9v9.7H442.78V61.7A11,11,0,0,0,443.94,67q1.16,2.12,5.2,2.12a15.05,15.05,0,0,0,2.63-.25,10.54,10.54,0,0,0,2.52-.76l.4,9.49a20.06,20.06,0,0,1-3.84,1,27.09,27.09,0,0,1-4.24.35,19.35,19.35,0,0,1-7.88-1.36,11.93,11.93,0,0,1-4.8-3.74,13.81,13.81,0,0,1-2.42-5.45,31.64,31.64,0,0,1-.66-6.62V39.17Z"/><path class="cls-5" d="M507.93,78H496.41V70.18h-.2a15.68,15.68,0,0,1-5.61,6.41,16.12,16.12,0,0,1-9.44,2.78A18.23,18.23,0,0,1,473,77.7a16,16,0,0,1-5.55-4.39A17.7,17.7,0,0,1,464.3,67a26.31,26.31,0,0,1-1-7.27V29.48h12.12V56.34a34.36,34.36,0,0,0,.3,4.44A12,12,0,0,0,477,65a8.69,8.69,0,0,0,2.78,3.08,8.15,8.15,0,0,0,4.7,1.21,10.43,10.43,0,0,0,5-1.16,10.57,10.57,0,0,0,3.54-3,13.19,13.19,0,0,0,2.07-4.19,16.74,16.74,0,0,0,.71-4.8V29.48h12.12Z"/><path class="cls-5" d="M522.47,29.48h11.61v8.08h.2a17.69,17.69,0,0,1,5.66-6.87,14.11,14.11,0,0,1,8.48-2.63q.71,0,1.52,0a5.66,5.66,0,0,1,1.41.25V39.48a17.13,17.13,0,0,0-2.07-.4,14.5,14.5,0,0,0-1.67-.1A12.85,12.85,0,0,0,541,40.49,12.1,12.1,0,0,0,537,44.12a13,13,0,0,0-1.92,4.34,16.85,16.85,0,0,0-.51,3.54V78H522.47Z"/><path class="cls-5" d="M603.67,54.32v1.62a13.17,13.17,0,0,1-.1,1.62H566.71a12,12,0,0,0,1.36,4.8,12.18,12.18,0,0,0,3.08,3.74,15.33,15.33,0,0,0,4.34,2.47,14.28,14.28,0,0,0,5.05.91,16.17,16.17,0,0,0,7.68-1.67,14.39,14.39,0,0,0,5.15-4.6l8.08,6.46q-7.17,9.7-20.81,9.7a29.61,29.61,0,0,1-10.4-1.77,24.53,24.53,0,0,1-8.23-5,22.55,22.55,0,0,1-5.45-7.93,27.33,27.33,0,0,1-2-10.66,27.83,27.83,0,0,1,2-10.66,23.73,23.73,0,0,1,13.53-13.43,27.22,27.22,0,0,1,10.15-1.87,25.59,25.59,0,0,1,9.34,1.67A20.28,20.28,0,0,1,597,34.68a23,23,0,0,1,4.9,8.18A33.8,33.8,0,0,1,603.67,54.32Zm-12.12-5.45a15,15,0,0,0-.66-4.44,9.92,9.92,0,0,0-5.66-6.31,12.56,12.56,0,0,0-5.1-1,13.62,13.62,0,0,0-9.24,3.28,12,12,0,0,0-4.19,8.43Z"/><path class="cls-5" d="M642,42.41a14,14,0,0,0-4.44-3.69,12.52,12.52,0,0,0-6.16-1.57A11.79,11.79,0,0,0,626,38.37a4.18,4.18,0,0,0-2.42,4,4.05,4.05,0,0,0,2.68,4,48.91,48.91,0,0,0,7.83,2.37,44.49,44.49,0,0,1,5.5,1.62,20.14,20.14,0,0,1,5,2.68,13.23,13.23,0,0,1,3.69,4.14,11.94,11.94,0,0,1,1.41,6,15.62,15.62,0,0,1-1.67,7.52,14.15,14.15,0,0,1-4.44,5,18.71,18.71,0,0,1-6.46,2.78,33.57,33.57,0,0,1-7.62.86,30.29,30.29,0,0,1-11-2.07,23.24,23.24,0,0,1-8.89-5.91l8-7.47a15.88,15.88,0,0,0,5.25,4.34A15,15,0,0,0,630,70a12.32,12.32,0,0,0,2.68-.3,9.09,9.09,0,0,0,2.52-1,5.23,5.23,0,0,0,1.87-1.77,5,5,0,0,0,.71-2.73A4.48,4.48,0,0,0,635,59.88a45,45,0,0,0-8.33-2.63,39.94,39.94,0,0,1-5.3-1.57,17.25,17.25,0,0,1-4.6-2.53,11.67,11.67,0,0,1-3.23-3.89,12.35,12.35,0,0,1-1.21-5.76,13.88,13.88,0,0,1,1.67-7,14.33,14.33,0,0,1,4.39-4.8A19.74,19.74,0,0,1,624.58,29a27.53,27.53,0,0,1,7.07-.91,29.78,29.78,0,0,1,10.25,1.82,17.32,17.32,0,0,1,7.93,5.55Z"/><path class="cls-6" d="M175.38,107.12a1.67,1.67,0,0,1,.42-1.15,1.56,1.56,0,0,1,1.23-.47,1.59,1.59,0,0,1,1.24.47,1.66,1.66,0,0,1,.42,1.15,1.66,1.66,0,1,1-3.31,0Zm3,20.72h-2.8V111.46h2.8Z"/><path class="cls-6" d="M188.62,111.46l.08,1.82a6,6,0,0,1,4.86-2.12q3.44,0,4.68,2.63a6.2,6.2,0,0,1,2.13-1.91,6.28,6.28,0,0,1,3.1-.73q5.39,0,5.48,5.71v11h-2.8V117a3.76,3.76,0,0,0-.8-2.63,3.53,3.53,0,0,0-2.69-.87,3.71,3.71,0,0,0-2.59.93,3.77,3.77,0,0,0-1.2,2.5v10.87H196V117.11q0-3.57-3.5-3.57a3.75,3.75,0,0,0-3.77,2.35v12H186V111.46Z"/><path class="cls-6" d="M230.09,119.83a9.81,9.81,0,0,1-1.71,6,5.48,5.48,0,0,1-4.63,2.29,6,6,0,0,1-4.69-1.89v7.89h-2.8V111.46h2.56l.14,1.82a5.77,5.77,0,0,1,4.75-2.12,5.58,5.58,0,0,1,4.67,2.23,9.92,9.92,0,0,1,1.72,6.19Zm-2.8-.32a7.23,7.23,0,0,0-1.18-4.37,3.8,3.8,0,0,0-3.24-1.61,4.12,4.12,0,0,0-3.81,2.26v7.83a4.12,4.12,0,0,0,3.84,2.24,3.79,3.79,0,0,0,3.2-1.6A7.9,7.9,0,0,0,227.29,119.52Z"/><path class="cls-6" d="M246.86,127.84a5.89,5.89,0,0,1-.39-1.73,6.25,6.25,0,0,1-4.66,2,5.78,5.78,0,0,1-4-1.37,4.43,4.43,0,0,1-1.55-3.47,4.63,4.63,0,0,1,1.94-4,9.17,9.17,0,0,1,5.47-1.42h2.72v-1.29a3.14,3.14,0,0,0-.88-2.34,3.53,3.53,0,0,0-2.59-.87,4.08,4.08,0,0,0-2.51.76,2.23,2.23,0,0,0-1,1.83h-2.82a3.86,3.86,0,0,1,.87-2.37,5.94,5.94,0,0,1,2.36-1.81,7.93,7.93,0,0,1,3.28-.67,6.47,6.47,0,0,1,4.43,1.42,5.11,5.11,0,0,1,1.67,3.9V124a9.21,9.21,0,0,0,.58,3.59v.24Zm-4.65-2.13a4.92,4.92,0,0,0,2.5-.68,4.11,4.11,0,0,0,1.71-1.77v-3.36h-2.19q-5.15,0-5.15,3A2.55,2.55,0,0,0,240,125,3.38,3.38,0,0,0,242.21,125.71Z"/><path class="cls-6" d="M263.28,125.86a4,4,0,0,0,2.62-.91,3.2,3.2,0,0,0,1.24-2.27h2.65a5.08,5.08,0,0,1-1,2.68,6.39,6.39,0,0,1-2.38,2,6.88,6.88,0,0,1-3.16.76,6.75,6.75,0,0,1-5.32-2.23,8.89,8.89,0,0,1-2-6.11v-.47a9.86,9.86,0,0,1,.88-4.25,6.68,6.68,0,0,1,2.52-2.89,7.16,7.16,0,0,1,3.88-1,6.57,6.57,0,0,1,4.58,1.65,5.9,5.9,0,0,1,1.95,4.28h-2.65a3.86,3.86,0,0,0-1.2-2.61,3.75,3.75,0,0,0-2.67-1A3.92,3.92,0,0,0,260,115a7.22,7.22,0,0,0-1.17,4.44V120a7.07,7.07,0,0,0,1.17,4.36A3.94,3.94,0,0,0,263.28,125.86Z"/><path class="cls-6" d="M279.83,107.5v4h3.06v2.17h-3.06V123.8a2.27,2.27,0,0,0,.41,1.48,1.72,1.72,0,0,0,1.39.49,6.78,6.78,0,0,0,1.33-.18v2.26a8.18,8.18,0,0,1-2.15.3A3.49,3.49,0,0,1,278,127a4.87,4.87,0,0,1-1-3.22V113.63h-3v-2.17h3v-4Z"/><path class="cls-6" d="M305.44,124l4.06-12.58h2.86l-5.87,16.38h-2.13l-5.93-16.38h2.86Z"/><path class="cls-6" d="M324.75,128.14a7.15,7.15,0,0,1-5.42-2.19,8.12,8.12,0,0,1-2.09-5.85v-.52a9.82,9.82,0,0,1,.93-4.35,7.26,7.26,0,0,1,2.6-3,6.55,6.55,0,0,1,3.63-1.08,6.13,6.13,0,0,1,5,2.1,9.11,9.11,0,0,1,1.77,6v1.17H320a5.82,5.82,0,0,0,1.42,3.91,4.45,4.45,0,0,0,3.44,1.49,4.88,4.88,0,0,0,2.51-.61,6.33,6.33,0,0,0,1.8-1.61l1.71,1.33A6.88,6.88,0,0,1,324.75,128.14Zm-.35-14.68a3.74,3.74,0,0,0-2.85,1.23,6,6,0,0,0-1.42,3.46h8.2v-.21a5.33,5.33,0,0,0-1.15-3.31A3.52,3.52,0,0,0,324.4,113.46Z"/><path class="cls-6" d="M340.13,111.46l.09,2.06a6,6,0,0,1,4.9-2.36q5.19,0,5.24,5.86v10.82h-2.8V117a3.77,3.77,0,0,0-.81-2.62,3.25,3.25,0,0,0-2.47-.85,4,4,0,0,0-2.39.73,4.93,4.93,0,0,0-1.6,1.91v11.67h-2.8V111.46Z"/><path class="cls-6" d="M361.48,107.5v4h3.06v2.17h-3.06V123.8a2.27,2.27,0,0,0,.41,1.48,1.72,1.72,0,0,0,1.39.49,6.78,6.78,0,0,0,1.33-.18v2.26a8.18,8.18,0,0,1-2.15.3,3.49,3.49,0,0,1-2.83-1.13,4.87,4.87,0,0,1-1-3.22V113.63h-3v-2.17h3v-4Z"/><path class="cls-6" d="M381,126.22a6,6,0,0,1-4.8,1.92,5.09,5.09,0,0,1-4-1.52,6.58,6.58,0,0,1-1.38-4.5V111.46h2.8V122q0,3.72,3,3.72,3.21,0,4.27-2.39V111.46h2.8v16.38h-2.66Z"/><path class="cls-6" d="M399,114a8.43,8.43,0,0,0-1.38-.11,3.69,3.69,0,0,0-3.74,2.35v11.63h-2.8V111.46h2.72l0,1.89a4.36,4.36,0,0,1,3.91-2.19,2.85,2.85,0,0,1,1.24.21Z"/><path class="cls-6" d="M411.2,128.14a7.15,7.15,0,0,1-5.42-2.19,8.12,8.12,0,0,1-2.09-5.85v-.52a9.82,9.82,0,0,1,.93-4.35,7.26,7.26,0,0,1,2.6-3,6.55,6.55,0,0,1,3.63-1.08,6.13,6.13,0,0,1,5,2.1,9.11,9.11,0,0,1,1.77,6v1.17H406.49a5.82,5.82,0,0,0,1.42,3.91,4.45,4.45,0,0,0,3.44,1.49,4.88,4.88,0,0,0,2.51-.61,6.33,6.33,0,0,0,1.8-1.61l1.71,1.33A6.88,6.88,0,0,1,411.2,128.14Zm-.35-14.68a3.74,3.74,0,0,0-2.85,1.23,6,6,0,0,0-1.42,3.46h8.2v-.21a5.33,5.33,0,0,0-1.15-3.31A3.52,3.52,0,0,0,410.85,113.46Z"/><path class="cls-6" d="M441.27,125.86a4,4,0,0,0,2.62-.91,3.2,3.2,0,0,0,1.24-2.27h2.65a5.08,5.08,0,0,1-1,2.68,6.39,6.39,0,0,1-2.38,2,6.88,6.88,0,0,1-3.16.76,6.75,6.75,0,0,1-5.32-2.23,8.89,8.89,0,0,1-2-6.11v-.47a9.86,9.86,0,0,1,.88-4.25,6.68,6.68,0,0,1,2.52-2.89,7.16,7.16,0,0,1,3.88-1,6.57,6.57,0,0,1,4.58,1.65,5.9,5.9,0,0,1,1.95,4.28h-2.65a3.86,3.86,0,0,0-1.2-2.61,3.75,3.75,0,0,0-2.67-1,3.92,3.92,0,0,0-3.31,1.54,7.22,7.22,0,0,0-1.17,4.44V120a7.07,7.07,0,0,0,1.17,4.36A3.94,3.94,0,0,0,441.27,125.86Z"/><path class="cls-6" d="M464.14,127.84a5.89,5.89,0,0,1-.39-1.73,6.25,6.25,0,0,1-4.66,2,5.78,5.78,0,0,1-4-1.37,4.43,4.43,0,0,1-1.55-3.47,4.63,4.63,0,0,1,1.94-4,9.17,9.17,0,0,1,5.47-1.42h2.72v-1.29a3.14,3.14,0,0,0-.88-2.34,3.53,3.53,0,0,0-2.59-.87,4.08,4.08,0,0,0-2.51.76,2.23,2.23,0,0,0-1,1.83h-2.82a3.86,3.86,0,0,1,.87-2.37,5.94,5.94,0,0,1,2.36-1.81,7.93,7.93,0,0,1,3.28-.67,6.47,6.47,0,0,1,4.43,1.42,5.11,5.11,0,0,1,1.67,3.9V124a9.21,9.21,0,0,0,.58,3.59v.24Zm-4.65-2.13A4.92,4.92,0,0,0,462,125a4.11,4.11,0,0,0,1.71-1.77v-3.36H461.5q-5.15,0-5.15,3a2.55,2.55,0,0,0,.88,2.06A3.38,3.38,0,0,0,459.49,125.71Z"/><path class="cls-6" d="M487.82,119.83a9.81,9.81,0,0,1-1.71,6,5.48,5.48,0,0,1-4.63,2.29,6,6,0,0,1-4.69-1.89v7.89H474V111.46h2.56l.14,1.82a5.77,5.77,0,0,1,4.75-2.12,5.58,5.58,0,0,1,4.67,2.23,9.92,9.92,0,0,1,1.72,6.19Zm-2.8-.32a7.23,7.23,0,0,0-1.18-4.37,3.8,3.8,0,0,0-3.24-1.61,4.12,4.12,0,0,0-3.81,2.26v7.83a4.12,4.12,0,0,0,3.84,2.24,3.79,3.79,0,0,0,3.2-1.6A7.9,7.9,0,0,0,485,119.52Z"/><path class="cls-6" d="M494.5,107.12a1.67,1.67,0,0,1,.42-1.15,1.56,1.56,0,0,1,1.23-.47,1.59,1.59,0,0,1,1.24.47,1.66,1.66,0,0,1,.42,1.15,1.66,1.66,0,1,1-3.31,0Zm3,20.72h-2.8V111.46h2.8Z"/><path class="cls-6" d="M508.9,107.5v4H512v2.17H508.9V123.8a2.27,2.27,0,0,0,.41,1.48,1.72,1.72,0,0,0,1.39.49,6.78,6.78,0,0,0,1.33-.18v2.26a8.18,8.18,0,0,1-2.15.3,3.49,3.49,0,0,1-2.83-1.13,4.87,4.87,0,0,1-1-3.22V113.63h-3v-2.17h3v-4Z"/><path class="cls-6" d="M528.44,127.84a5.89,5.89,0,0,1-.39-1.73,6.25,6.25,0,0,1-4.66,2,5.78,5.78,0,0,1-4-1.37,4.43,4.43,0,0,1-1.55-3.47,4.63,4.63,0,0,1,1.94-4,9.17,9.17,0,0,1,5.47-1.42H528v-1.29a3.14,3.14,0,0,0-.88-2.34,3.53,3.53,0,0,0-2.59-.87,4.08,4.08,0,0,0-2.51.76,2.23,2.23,0,0,0-1,1.83h-2.82a3.86,3.86,0,0,1,.87-2.37,5.94,5.94,0,0,1,2.36-1.81,7.93,7.93,0,0,1,3.28-.67,6.47,6.47,0,0,1,4.43,1.42,5.11,5.11,0,0,1,1.67,3.9V124a9.21,9.21,0,0,0,.58,3.59v.24Zm-4.65-2.13a4.92,4.92,0,0,0,2.5-.68,4.11,4.11,0,0,0,1.71-1.77v-3.36h-2.19q-5.15,0-5.15,3a2.55,2.55,0,0,0,.88,2.06A3.38,3.38,0,0,0,523.79,125.71Z"/><path class="cls-6" d="M541.33,127.84h-2.8V104.59h2.8Z"/><path class="cls-6" d="M561.07,127.84V113.63h-2.59v-2.17h2.59v-1.68a5.58,5.58,0,0,1,1.41-4.07,5.32,5.32,0,0,1,4-1.44,7.42,7.42,0,0,1,1.92.26l-.15,2.26a8,8,0,0,0-1.51-.14,2.73,2.73,0,0,0-2.1.8,3.23,3.23,0,0,0-.74,2.29v1.73h3.5v2.17h-3.5v14.21Z"/><path class="cls-6" d="M583.66,126.22a6,6,0,0,1-4.8,1.92,5.09,5.09,0,0,1-4-1.52,6.58,6.58,0,0,1-1.38-4.5V111.46h2.8V122q0,3.72,3,3.72,3.21,0,4.27-2.39V111.46h2.8v16.38h-2.66Z"/><path class="cls-6" d="M596.39,111.46l.09,2.06a6,6,0,0,1,4.9-2.36q5.19,0,5.24,5.86v10.82h-2.8V117a3.77,3.77,0,0,0-.81-2.62,3.25,3.25,0,0,0-2.47-.85,4,4,0,0,0-2.39.73,4.93,4.93,0,0,0-1.6,1.91v11.67h-2.8V111.46Z"/><path class="cls-6" d="M613.26,119.52a9.59,9.59,0,0,1,1.79-6.06,6.08,6.08,0,0,1,9.23-.33v-8.54h2.8v23.25h-2.57l-.14-1.76a5.71,5.71,0,0,1-4.68,2.06,5.6,5.6,0,0,1-4.64-2.33,9.71,9.71,0,0,1-1.79-6.08Zm2.8.32a7.26,7.26,0,0,0,1.15,4.36,3.72,3.72,0,0,0,3.18,1.57,4.08,4.08,0,0,0,3.89-2.39v-7.52a4.12,4.12,0,0,0-3.86-2.32,3.74,3.74,0,0,0-3.21,1.59A8,8,0,0,0,616.06,119.83Z"/><path class="cls-6" d="M644.06,123.5a2.06,2.06,0,0,0-.86-1.76,8.23,8.23,0,0,0-3-1.08,14.11,14.11,0,0,1-3.38-1.09A4.81,4.81,0,0,1,635,118a3.63,3.63,0,0,1-.6-2.09,4.25,4.25,0,0,1,1.7-3.41,6.65,6.65,0,0,1,4.35-1.39A6.84,6.84,0,0,1,645,112.6a4.57,4.57,0,0,1,1.73,3.68H643.9a2.53,2.53,0,0,0-1-2,3.66,3.66,0,0,0-2.46-.83,3.83,3.83,0,0,0-2.39.67,2.1,2.1,0,0,0-.86,1.74,1.7,1.7,0,0,0,.8,1.53,9.88,9.88,0,0,0,2.9,1,15.11,15.11,0,0,1,3.4,1.12,5,5,0,0,1,1.93,1.57,3.85,3.85,0,0,1,.63,2.23,4.19,4.19,0,0,1-1.76,3.52,7.36,7.36,0,0,1-4.56,1.32,8.25,8.25,0,0,1-3.48-.7,5.66,5.66,0,0,1-2.37-1.95,4.69,4.69,0,0,1-.86-2.7h2.8a2.9,2.9,0,0,0,1.13,2.23,4.37,4.37,0,0,0,2.78.83,4.52,4.52,0,0,0,2.55-.64A2,2,0,0,0,644.06,123.5Z"/></svg>